<svg width="1283" height="654" viewBox="0 0 1283 654" fill="none" xmlns="http://www.w3.org/2000/svg">
<g clip-path="url(#clip0_153_2)">
<path d="M1941.53 2252.14L1941.52 2252.15L1941.52 2252.15C1937.31 2254.5 1932.42 2255.91 1927.29 2255.91H1424.23C1420.6 2255.91 1416.91 2255.97 1413.24 2256.03L1413.21 2256.03C1409.54 2256.09 1405.88 2256.16 1402.28 2256.16C1397.69 2256.16 1393.38 2256.15 1389.07 2255.91L1389.04 2255.91H1389.02H1362.97C1346.18 2255.91 1332.86 2242.28 1332.86 2225.32V948.713V948.551L1332.81 948.396C1324.5 923.542 1307.4 906.125 1278.82 889.773C1081.31 776.064 885.496 659.439 690.156 541.596C673.207 531.35 658.503 525.605 643.516 525.173C628.518 524.74 613.375 529.631 595.551 540.381L595.549 540.383C397.078 660.896 196.917 778.98 -3.96814 895.364C-29.6871 910.276 -43.8961 926.502 -50.0128 949.427L-50.0465 949.554V949.685V2225.32C-50.0465 2242.28 -63.5986 2255.91 -80.1569 2255.91H-644.481C-646.581 2255.91 -648.669 2255.68 -650.507 2255.21L-650.531 2255.21L-650.554 2255.2C-664.559 2252.38 -674.833 2240.15 -674.833 2225.32V-1008.59C-671.291 -1021.21 -659.657 -1030.32 -645.928 -1030.32H-80.1569C-63.5936 -1030.32 -50.0465 -1016.68 -50.0465 -999.978V291.212V292.952L-48.5435 292.077C-27.2401 279.675 -7.2334 268.133 11.9702 257.054C41.6672 239.921 69.4437 223.896 97.1254 207.516C134.811 185.215 172.551 162.981 210.301 140.74C332.951 68.481 455.712 -3.8429 577.059 -78.7227C600.248 -93.0073 620.509 -100.507 640.85 -100.837C661.186 -101.167 681.738 -94.3333 705.515 -79.694L706.005 -80.4899L705.515 -79.6936C853.271 11.1117 1002.66 99.2335 1152.04 187.353C1193.33 211.711 1234.62 236.069 1275.88 260.483C1286.56 266.871 1297.6 272.34 1311.24 279.1C1317.37 282.135 1324.02 285.431 1331.41 289.188L1332.86 289.927V288.297V-237.267V-1008.73V-1008.73V-1008.73V-1008.73V-1008.73V-1008.73V-1008.73V-1008.73V-1008.73V-1008.73V-1008.73V-1008.73V-1008.73V-1008.73V-1008.73V-1008.74V-1008.74V-1008.74V-1008.74V-1008.74V-1008.74V-1008.74V-1008.74V-1008.74V-1008.74V-1008.74V-1008.74V-1008.74V-1008.74V-1008.74V-1008.74V-1008.74V-1008.75V-1008.75V-1008.75V-1008.75V-1008.75V-1008.75V-1008.75V-1008.75V-1008.75V-1008.75V-1008.75V-1008.75V-1008.75V-1008.75V-1008.75V-1008.76V-1008.76V-1008.76V-1008.76V-1008.76V-1008.76V-1008.76V-1008.76V-1008.76V-1008.76V-1008.76V-1008.76V-1008.77V-1008.77V-1008.77V-1008.77V-1008.77V-1008.77V-1008.77V-1008.77V-1008.77V-1008.77V-1008.77V-1008.78V-1008.78V-1008.78V-1008.78V-1008.78V-1008.78V-1008.78V-1008.78V-1008.78V-1008.78V-1008.79V-1008.79V-1008.79V-1008.79V-1008.79V-1008.79V-1008.79V-1008.79V-1008.79V-1008.79V-1008.8V-1008.8V-1008.8V-1008.8V-1008.8V-1008.8V-1008.8V-1008.8V-1008.8V-1008.81V-1008.81V-1008.81V-1008.81V-1008.81V-1008.81V-1008.81V-1008.81V-1008.82V-1008.82V-1008.82V-1008.82V-1008.82V-1008.82V-1008.82V-1008.82V-1008.83V-1008.83V-1008.83V-1008.83V-1008.83V-1008.83V-1008.83V-1008.83V-1008.84V-1008.84V-1008.84V-1008.84V-1008.84V-1008.84V-1008.84V-1008.85V-1008.85V-1008.85V-1008.85V-1008.85V-1008.85V-1008.85V-1008.86V-1008.86V-1008.86V-1008.86V-1008.86V-1008.86V-1008.86V-1008.86V-1008.87V-1008.87V-1008.87V-1008.87V-1008.87V-1008.87V-1008.88V-1008.88V-1008.88V-1008.88V-1008.88V-1008.88V-1008.88V-1008.89V-1008.89V-1008.89V-1008.89V-1008.89V-1008.89V-1008.89V-1008.9V-1008.9V-1008.9V-1008.9V-1008.9V-1008.9V-1008.91V-1008.91V-1008.91V-1008.91V-1008.91V-1008.91V-1008.92V-1008.92V-1008.92V-1008.92V-1008.92V-1008.92V-1008.93V-1008.93V-1008.93V-1008.93V-1008.93V-1008.93V-1008.93V-1008.94V-1008.94V-1008.94V-1008.94V-1008.94V-1008.94V-1008.95V-1008.95V-1008.95V-1008.95V-1008.95V-1008.96V-1008.96V-1008.96V-1008.96V-1008.96V-1008.96V-1008.97V-1008.97V-1008.97V-1008.97V-1008.97V-1008.97V-1008.98V-1008.98V-1008.98V-1008.98V-1008.98V-1008.98V-1008.99V-1008.99V-1008.99V-1008.99V-1008.99V-1009V-1009V-1009V-1009V-1009V-1009V-1009.01V-1009.01V-1009.01V-1009.01V-1009.01V-1009.01V-1009.02V-1009.02V-1009.02V-1009.02V-1009.02V-1009.03V-1009.03V-1009.03V-1009.03V-1009.03V-1009.03V-1009.04V-1009.04V-1009.04V-1009.04V-1009.04V-1009.05V-1009.05V-1009.05V-1009.05V-1009.05V-1009.05V-1009.06V-1009.06V-1009.06V-1009.06V-1009.06V-1009.07V-1009.07V-1009.07V-1009.07V-1009.07V-1009.08V-1009.08V-1009.08V-1009.08V-1009.08V-1009.08V-1009.09V-1009.09V-1009.09V-1009.09V-1009.09V-1009.1V-1009.1V-1009.1V-1009.1V-1009.1V-1009.11V-1009.11V-1009.11V-1009.11V-1009.11V-1009.11V-1009.12V-1009.12V-1009.12V-1009.12V-1009.12V-1009.13V-1009.13V-1009.13V-1009.13V-1009.13V-1009.14V-1009.14V-1009.14V-1009.14V-1009.14V-1009.15V-1009.15V-1009.15V-1009.15V-1009.15V-1009.15V-1009.16V-1009.16V-1009.16V-1009.16V-1009.16V-1009.17V-1009.17V-1009.17V-1009.17V-1009.17V-1009.18V-1009.18V-1009.18V-1009.18V-1009.18V-1009.18V-1009.19V-1009.19V-1009.19V-1009.19V-1009.19V-1009.2V-1009.2V-1009.2V-1009.2V-1009.2V-1009.21V-1009.21V-1009.21V-1009.21V-1009.21V-1009.22V-1009.22V-1009.22V-1009.22V-1009.22V-1009.22V-1009.23V-1009.23V-1009.23V-1009.23V-1009.23V-1009.24V-1009.24V-1009.24V-1009.24V-1009.24V-1009.25V-1009.25V-1009.25V-1009.25V-1009.25V-1009.25V-1009.26V-1009.26V-1009.26V-1009.26V-1009.26V-1009.27V-1009.27V-1009.27V-1009.27V-1009.27V-1009.27V-1009.28V-1009.28V-1009.28V-1009.28V-1009.28V-1009.29V-1009.29V-1009.29V-1009.29V-1009.29V-1009.29V-1009.3V-1009.3V-1009.3V-1009.3V-1009.3C1336.64 -1021.46 1348.04 -1030.32 1361.52 -1030.32H1927.29C1943.86 -1030.32 1957.4 -1016.68 1957.4 -999.978V2225.32C1957.4 2237.1 1951.1 2246.97 1941.53 2252.14Z" stroke="#E2E2E2" stroke-width="2"/>
</g>
<line x1="44.5464" y1="0.864258" x2="44.5464" y2="653.135" stroke="#D9D9D9" stroke-width="2"/>
<line x1="1240.4" y1="0.864258" x2="1240.4" y2="653.135" stroke="#D9D9D9" stroke-width="2"/>
<defs>
<clipPath id="clip0_153_2">
<rect width="1281.99" height="651.676" fill="white" transform="translate(0.47998 0.864258)"/>
</clipPath>
</defs>
</svg>
