<svg width="48" height="48" viewBox="0 0 48 48" fill="none" xmlns="http://www.w3.org/2000/svg">
<path d="M3.05127 46.8823H23.1763C23.4332 46.8823 23.6796 46.7803 23.8613 46.5986C24.043 46.4169 24.145 46.1705 24.145 45.9136C24.145 45.6566 24.043 45.4102 23.8613 45.2286C23.6796 45.0469 23.4332 44.9448 23.1763 44.9448H3.05127C2.92695 44.9448 2.80772 44.8954 2.71981 44.8075C2.63191 44.7196 2.58252 44.6004 2.58252 44.4761V2.78857C2.58252 2.66425 2.63191 2.54503 2.71981 2.45712C2.80772 2.36921 2.92695 2.31982 3.05127 2.31982H33.2388C33.3631 2.31982 33.4823 2.36921 33.5702 2.45712C33.6581 2.54503 33.7075 2.66425 33.7075 2.78857V9.97607C33.7075 10.233 33.8096 10.4794 33.9913 10.6611C34.1729 10.8428 34.4193 10.9448 34.6763 10.9448C34.9332 10.9448 35.1796 10.8428 35.3613 10.6611C35.543 10.4794 35.645 10.233 35.645 9.97607V2.78857C35.645 1.46169 34.5657 0.382324 33.2388 0.382324H3.05127C1.72439 0.382324 0.64502 1.46169 0.64502 2.78857V44.4761C0.64502 45.803 1.72439 46.8823 3.05127 46.8823Z" fill="white" stroke="white" stroke-width="0.5"/>
<path d="M26.52 15.7261V44.4761C26.52 45.803 27.5994 46.8823 28.9263 46.8823H44.7388C46.0657 46.8823 47.145 45.803 47.145 44.4761V15.7261C47.145 14.3992 46.0657 13.3198 44.7388 13.3198H28.9263C27.5994 13.3198 26.52 14.3992 26.52 15.7261ZM45.2075 15.7261V44.4761C45.2075 44.6004 45.1581 44.7196 45.0702 44.8075C44.9823 44.8954 44.8631 44.9448 44.7388 44.9448H28.9263C28.8019 44.9448 28.6827 44.8954 28.5948 44.8075C28.5069 44.7196 28.4575 44.6004 28.4575 44.4761V15.7261C28.4575 15.6018 28.5069 15.4825 28.5948 15.3946C28.6827 15.3067 28.8019 15.2573 28.9263 15.2573H44.7388C44.8631 15.2573 44.9823 15.3067 45.0702 15.3946C45.1581 15.4825 45.2075 15.6018 45.2075 15.7261Z" fill="white" stroke="white" stroke-width="0.5"/>
<path d="M18.145 42.5698C19.077 42.5698 19.8325 41.8143 19.8325 40.8823C19.8325 39.9503 19.077 39.1948 18.145 39.1948C17.213 39.1948 16.4575 39.9503 16.4575 40.8823C16.4575 41.8143 17.213 42.5698 18.145 42.5698Z" fill="white" stroke="white" stroke-width="0.5"/>
<path d="M36.8325 42.5698C37.7645 42.5698 38.52 41.8143 38.52 40.8823C38.52 39.9503 37.7645 39.1948 36.8325 39.1948C35.9005 39.1948 35.145 39.9503 35.145 40.8823C35.145 41.8143 35.9005 42.5698 36.8325 42.5698Z" fill="white" stroke="white" stroke-width="0.5"/>
</svg>
