<svg width="49" height="48" viewBox="0 0 49 48" fill="none" xmlns="http://www.w3.org/2000/svg">
<path d="M8.38451 33.171L19.8705 26.2794M29.0592 21.685L40.5452 14.7934M24.4649 7.90184V19.3878M24.4649 28.5766V40.0625M8.38451 14.7934L19.8705 21.685M29.0592 26.2794L40.5452 33.171M43.991 17.0906V29.7252M27.9106 43.5083L40.5452 36.6167M7.23591 36.6167L21.0191 43.5083M4.93872 30.8738V17.0906M7.23591 11.3476L21.0191 4.45605M41.6938 11.3476L27.9106 4.45605" stroke="white" stroke-width="1.5" stroke-linecap="round" stroke-linejoin="round"/>
<path d="M24.4648 7.90183C26.3679 7.90183 27.9106 6.3591 27.9106 4.45604C27.9106 2.55299 26.3679 1.01025 24.4648 1.01025C22.5618 1.01025 21.019 2.55299 21.019 4.45604C21.019 6.3591 22.5618 7.90183 24.4648 7.90183Z" stroke="white" stroke-width="1.5" stroke-linecap="round" stroke-linejoin="round"/>
<path d="M24.4648 46.9541C26.3679 46.9541 27.9106 45.4113 27.9106 43.5083C27.9106 41.6052 26.3679 40.0625 24.4648 40.0625C22.5618 40.0625 21.019 41.6052 21.019 43.5083C21.019 45.4113 22.5618 46.9541 24.4648 46.9541Z" stroke="white" stroke-width="1.5" stroke-linecap="round" stroke-linejoin="round"/>
<path d="M4.93871 17.0906C6.84176 17.0906 8.3845 15.5478 8.3845 13.6448C8.3845 11.7417 6.84176 10.199 4.93871 10.199C3.03565 10.199 1.49292 11.7417 1.49292 13.6448C1.49292 15.5478 3.03565 17.0906 4.93871 17.0906Z" stroke="white" stroke-width="1.5" stroke-linecap="round" stroke-linejoin="round"/>
<path d="M43.991 17.0906C45.894 17.0906 47.4367 15.5478 47.4367 13.6448C47.4367 11.7417 45.894 10.199 43.991 10.199C42.0879 10.199 40.5452 11.7417 40.5452 13.6448C40.5452 15.5478 42.0879 17.0906 43.991 17.0906Z" stroke="white" stroke-width="1.5" stroke-linecap="round" stroke-linejoin="round"/>
<path d="M43.991 37.7654C45.894 37.7654 47.4367 36.2226 47.4367 34.3196C47.4367 32.4165 45.894 30.8738 43.991 30.8738C42.0879 30.8738 40.5452 32.4165 40.5452 34.3196C40.5452 36.2226 42.0879 37.7654 43.991 37.7654Z" stroke="white" stroke-width="1.5" stroke-linecap="round" stroke-linejoin="round"/>
<path d="M4.93871 37.7654C6.84176 37.7654 8.3845 36.2226 8.3845 34.3196C8.3845 32.4165 6.84176 30.8738 4.93871 30.8738C3.03565 30.8738 1.49292 32.4165 1.49292 34.3196C1.49292 36.2226 3.03565 37.7654 4.93871 37.7654Z" stroke="white" stroke-width="1.5" stroke-linecap="round" stroke-linejoin="round"/>
<path d="M24.4647 18.8135L29.0591 21.3978V26.5665L24.4647 29.1508L19.8704 26.5665V21.3978L24.4647 18.8135Z" stroke="white" stroke-width="1.5" stroke-linecap="round" stroke-linejoin="round"/>
</svg>
