<svg width="308" height="51" viewBox="0 0 308 51" fill="none" xmlns="http://www.w3.org/2000/svg">
<path fill-rule="evenodd" clip-rule="evenodd" d="M156.127 28.3296L156.81 28.8411C156.724 28.0748 156.853 26.7918 156.853 26.7918C156.338 27.1322 156.213 27.7728 156.213 27.7728L155.486 27.8583L156.127 28.3296ZM184.106 33.8786C184.02 33.7075 183.891 33.5818 183.676 33.5818C183.465 33.5818 183.25 33.793 183.25 34.0933C183.25 34.3935 183.465 34.6047 183.676 34.6047C183.931 34.6047 184.148 34.3935 184.148 34.0933C184.146 34.0095 184.106 33.9641 184.106 33.8786ZM184.088 31.8747C184.099 31.9114 184.106 31.9568 184.106 32.0004C184.104 32.1063 184.07 32.2091 184.009 32.2953C183.947 32.3816 183.861 32.4473 183.762 32.4839V33.114C183.88 33.1256 183.994 33.1616 184.097 33.2195C184.201 33.2775 184.291 33.3563 184.362 33.4509C184.5 33.636 184.574 33.8608 184.574 34.0915C184.574 34.5523 184.312 34.9241 183.929 35.0393C184.984 34.9573 185.644 34.8613 185.644 34.8613C184.617 34.6466 185.214 34.0496 185.214 34.0496C185.686 33.6639 186.581 33.3636 186.581 33.3636C185.515 33.2345 184.917 32.3827 184.657 31.8712H184.088V31.8747ZM183.551 35.0655C183.142 34.9974 182.824 34.5977 182.824 34.0933C182.824 33.6098 183.118 33.2205 183.507 33.1315V32.5049C183.39 32.4868 183.282 32.4322 183.197 32.3488C183.113 32.2654 183.058 32.1575 183.039 32.0406L183.036 32.0441C182.61 32.1697 182.224 32.1697 182.224 32.1697C182.138 32.3844 182.309 32.47 182.309 32.47C183.207 33.1106 182.61 33.7075 182.61 33.7075C182.184 34.0933 181.969 34.0933 181.969 34.0933C181.543 34.2224 180.517 35.1196 180.517 35.1196C181.658 35.1545 182.704 35.1196 183.551 35.0655ZM171.845 31.105C171.922 31.1051 171.997 31.0813 172.06 31.0369L172.912 31.4052C172.912 31.66 173.083 31.8765 173.298 31.8765C173.431 31.8765 173.548 31.791 173.616 31.6688L174.338 31.7752C174.386 31.9899 174.532 32.1331 174.707 32.1331C174.904 32.1331 175.103 31.9515 175.129 31.6897L175.733 31.4035C175.805 31.5099 175.911 31.578 176.033 31.578C176.245 31.578 176.459 31.3633 176.459 31.1067L176.845 30.4696C177.571 30.526 178.301 30.5114 179.024 30.426C180.176 29.8255 181.117 29.4851 181.117 29.4851C180.773 29.74 180.431 29.9564 180.216 30.2113C180.002 30.4246 179.802 30.6526 179.619 30.8938C179.465 31.0056 179.341 31.1542 179.258 31.3261C179.176 31.4981 179.138 31.6879 179.148 31.8782C179.181 32.1219 179.268 32.3551 179.403 32.5607C179.617 32.8156 179.918 32.9465 179.918 32.9465L180.389 33.3724C180.003 33.6726 179.148 33.8838 179.148 33.8838C178.676 34.0584 178.039 33.7581 178.039 33.7581C176.543 33.4178 176.032 34.0985 176.032 34.0985C175.731 34.4389 175.176 34.4843 175.176 34.4843L175.431 34.87C174.876 35.0411 174.579 34.8264 174.579 34.8264C174.536 34.1002 174.92 33.3741 174.92 33.3741C174.749 32.2221 172.355 32.4333 172.355 32.4333L171.76 31.8747L171.631 31.7456L170.264 30.4644C170.264 30.8501 170.093 31.4052 169.882 31.8765C169.71 32.2587 169.496 32.6026 169.496 32.6026L168.984 32.3443C169.082 32.2019 169.153 32.0436 169.195 31.8765C169.621 30.8501 169.922 29.3979 169.922 29.3979C170.177 29.3979 170.393 29.4415 170.562 29.4834C170.692 29.5689 170.777 29.6126 170.777 29.6126C170.877 29.6597 170.985 29.7051 171.102 29.7522L171.573 30.4207C171.529 30.4995 171.505 30.5885 171.505 30.6791C171.503 30.9339 171.631 31.105 171.845 31.105ZM176.615 30.4399L176.365 30.7943C176.331 30.7356 176.282 30.6865 176.224 30.6514C176.166 30.6164 176.1 30.5965 176.032 30.5935C175.817 30.5935 175.646 30.8047 175.646 31.105C175.646 31.1451 175.649 31.187 175.66 31.2237L175.115 31.4785C175.058 31.2778 174.883 31.1032 174.707 31.1032C174.495 31.1032 174.324 31.3581 174.324 31.6147L173.673 31.503C173.68 31.4702 173.684 31.4369 173.684 31.4035C173.684 31.1486 173.509 30.8885 173.298 30.8885C173.137 30.8885 173.005 31.0317 172.947 31.2097L172.193 30.8693C172.218 30.8092 172.231 30.7444 172.23 30.6791C172.23 30.4644 172.058 30.2532 171.844 30.2532C171.81 30.2518 171.776 30.2578 171.744 30.2706L171.543 29.9093H171.54C172.628 30.2636 173.977 30.5098 173.977 30.5098H174.918L175.218 30.0385C175.606 30.2549 176.107 30.3788 176.615 30.4399ZM171.552 23.1473C171.587 23.1909 171.62 23.231 171.655 23.2677L171.601 23.3637C171.573 23.3448 171.539 23.3339 171.505 23.3323C171.334 23.3323 171.205 23.5033 171.205 23.6744L171.165 23.6325L170.821 23.2467L170.695 23.1193L169.925 22.3077C169.028 21.112 167.661 22.3077 167.661 22.3077L167.45 22.1366C168.173 21.709 167.535 21.1539 167.535 21.1539L168.944 17.5233L168.558 17.0537C169.244 15.6434 167.792 15.6015 167.792 15.6015C167.362 14.3203 166.594 14.919 166.594 14.919C166.339 13.6797 165.397 14.3203 165.397 14.3203C165.056 13.4667 164.245 13.9782 164.245 13.9782L164.285 11.9708L163.347 12.0127L162.321 11.9708L162.406 14.0201C161.383 13.5086 161.209 14.5332 161.209 14.5332C160.015 13.849 160.015 15.1738 160.015 15.1738C159.03 14.8736 159.074 15.8144 159.074 15.8144C157.751 15.9418 157.922 17.0956 157.922 17.0956L158.945 20.5971C158.69 21.2377 155.657 24.9538 155.657 24.9538L154.374 24.5698L154.289 24.3569C154.587 24.5279 154.802 24.4424 154.802 24.4424C154.675 24.0148 154.844 23.1612 154.844 23.1612C155.23 21.496 154.545 20.8973 154.545 20.8973C154.587 20.2131 154.118 19.4032 154.118 19.4032C154.758 18.5915 153.819 17.7799 153.819 17.7799L153.69 17.5652L153.648 15.8144C153.477 15.8144 153.391 15.5997 153.391 15.5997C153.135 14.8736 152.665 15.3449 152.665 15.3449C152.323 14.5769 151.768 15.1738 151.768 15.1738C151.297 14.5332 150.827 15.1738 150.827 15.1738L150.443 13.9345L149.162 14.446L149.589 15.8127C148.648 15.598 148.949 16.5388 148.949 16.5388C148.137 16.5807 148.521 17.3068 148.521 17.3068C147.753 17.3923 148.051 18.2476 148.051 18.2476L148.905 19.6563C148.221 20.4243 148.863 20.9375 148.863 20.9375C149.078 21.3232 149.334 21.3232 149.334 21.3232C148.949 22.477 149.462 23.6727 149.462 23.6727C148.907 24.3132 148.095 24.8247 147.369 25.2087C146.302 25.7219 145.361 25.9785 145.361 25.9785C143.694 26.3642 140.407 27.4307 140.407 27.4307C139.253 27.7274 137.416 28.2825 137.416 28.2825C135.11 28.9685 134.511 28.2424 134.511 28.2424C133.956 27.8985 134.384 27.0013 134.384 27.0013C134.939 25.8912 136.093 25.6346 136.093 25.6346C136.905 26.1495 137.203 26.4462 137.203 26.4462C137.715 26.9612 138.614 26.9175 138.614 26.9175L138.656 26.7465C139.04 26.7901 139.297 26.6609 139.297 26.6609C139.04 26.4061 139.04 26.1059 139.04 26.1059C139.04 25.8929 138.741 25.5525 138.741 25.5525L144.679 25.296C144.893 25.2558 145.063 25.2558 145.234 25.2104C147.283 24.8264 147.755 24.3569 147.755 24.3569C149.163 23.245 148.566 21.4087 148.566 21.4087C147.796 19.6161 146.302 19.5288 146.302 19.5288C145.148 19.2304 144.295 19.4014 144.295 19.4014C143.654 19.445 142.331 19.1029 142.331 19.1029C142.287 19.3578 142.842 20.1694 142.842 20.1694C142.651 20.1867 142.458 20.1654 142.274 20.107C142.091 20.0485 141.922 19.954 141.775 19.8291C141.091 19.1885 139.981 19.4869 139.981 19.4869C140.152 19.8291 141.178 20.6844 141.178 20.6844C140.58 20.7262 138.958 20.0438 138.958 20.0438C139.256 21.4541 140.88 22.4351 140.88 22.4351C142.802 23.2468 144.467 22.3932 144.467 22.3932C145.279 21.8818 146.091 21.5815 146.091 21.5815C146.213 21.5257 146.346 21.497 146.481 21.4976C146.615 21.4982 146.748 21.528 146.87 21.5849C146.992 21.6419 147.1 21.7246 147.186 21.8274C147.273 21.9302 147.337 22.0506 147.372 22.1802C147.287 23.6325 146.218 23.6744 146.218 23.6744C143.142 24.315 139.042 23.8874 139.042 23.8874C139.34 23.5033 139.384 22.5206 139.384 22.5206L139.042 22.6062C137.249 22.4351 136.777 22.8209 136.777 22.8209C136.137 23.2049 135.838 24.0165 135.838 24.0165C135.026 24.3586 134.386 24.7845 133.914 25.2122C132.719 26.3677 132.591 27.6471 132.591 27.6471C132.506 29.1849 133.359 29.3996 133.359 29.3996C132.591 30.892 133.743 31.4488 133.743 31.4488C134.257 31.0666 134.47 30.6372 134.47 30.6372C135.494 29.8709 138.485 29.2286 138.485 29.2286C137.886 29.6999 137.544 31.1067 137.544 31.1067C137.032 31.2778 136.177 30.9776 136.177 30.9776C135.707 30.9374 135.707 31.3214 135.707 31.3214L135.493 31.8328L135.194 32.7737C133.358 32.6881 133.614 33.7546 133.614 33.7546L133.358 36.6155C133.785 37.682 134.468 37.5127 134.468 37.5127V36.4462H134.937C135.493 37.5982 136.348 37.8548 136.348 37.8548H136.605C136.903 37.7693 137.032 38.1987 137.032 38.1987L137.331 38.2388L137.373 37.5127L137.713 37.4725C137.928 37.5581 138.055 37.8984 138.055 37.8984H138.31C138.396 37.7274 138.439 37.2578 138.439 37.2578C138.782 37.0432 138.694 36.2769 138.694 36.2769C139.379 36.1477 140.105 36.406 140.105 36.406L140.063 37.0431C140.574 37.8984 141.217 38.0276 141.217 38.0276C141.645 38.1533 142.283 38.2388 143.053 38.2825C144.378 38.368 146.044 38.3226 147.582 38.2825C149.251 38.1983 150.917 38.0697 152.58 37.8967C152.751 38.1515 152.835 38.1114 152.835 38.1114C153.561 38.3662 154.373 37.5965 154.373 37.5965L154.118 38.1114C154.673 38.0678 155.272 37.682 155.272 37.682C155.42 37.8852 155.629 38.0356 155.869 38.1114L155.998 37.9822L156.169 38.2371C156.509 38.066 156.724 37.4708 156.724 37.4708C157.11 37.8112 157.665 37.7256 157.665 37.7256L157.836 37.9805L157.962 37.7658C158.217 37.9403 158.688 38.1515 158.688 38.1515C159.203 37.5109 158.988 36.5736 158.988 36.5736L159.117 36.7848L159.243 36.2734C159.498 36.5282 159.929 36.5282 159.929 36.5282C159.117 36.8686 159.585 37.4691 159.585 37.4691C159.686 37.6376 159.836 37.7711 160.015 37.8513C160.15 37.8345 160.287 37.8694 160.397 37.949C160.508 38.0286 160.585 38.1471 160.612 38.2807C161.252 38.5809 161.638 37.895 161.638 37.895L161.724 37.3835C161.595 37.0833 161.595 36.6138 161.595 36.6138L161.724 37.1688L161.935 37.298L163.387 38.45L164.629 37.4237C165.311 37.895 166.252 37.895 166.252 37.895C166.593 37.895 166.338 37.4691 166.338 37.4691C167.45 38.3662 169.113 38.1515 169.113 38.1515C169.368 37.9403 169.199 37.8112 169.199 37.8112C169.499 37.682 170.011 38.1114 170.011 38.1114C170.437 38.4081 171.077 38.1515 171.077 38.1515C171.037 37.9403 170.823 37.8967 170.823 37.8967C171.123 37.8967 170.952 37.4708 170.952 37.4708C171.248 37.5109 171.507 37.8531 171.507 37.8531C171.762 38.1969 172.233 38.1114 172.233 38.1114L172.273 37.8967C172.573 38.1114 173.254 38.1515 173.254 38.1515C173.429 37.9805 173.298 37.7256 173.298 37.7256C176.374 38.6665 180.942 38.4919 180.942 38.4919C186.881 38.4518 187.693 37.298 187.693 37.298C187.908 37.0397 187.779 36.7429 187.779 36.7429V36.4026C188.079 36.228 188.549 36.3589 188.549 36.3589L188.119 37.2561L187.993 37.5563C189.016 38.7084 190.554 37.4272 190.554 37.4272V37.0414C190.855 36.9157 191.11 36.5736 191.11 36.5736L191.796 36.7447C191.881 37.1304 191.625 37.5563 191.625 37.5563C192.691 37.8531 193.073 36.7447 193.073 36.7447L192.522 33.8803C191.666 32.8993 190.128 33.0687 190.128 33.0687L190.085 32.3425C189.999 32.0877 189.702 31.9166 189.444 31.8747L189.114 31.756L188.803 31.8747C188.332 31.9149 187.648 31.9149 187.648 31.9149V31.8747L187.733 30.8903V29.7819L187.648 29.3961L188.549 29.5253C189.231 29.822 190.813 29.822 190.813 29.822C191.324 30.0367 191.324 30.5482 191.324 30.5482L191.153 31.1486C192.606 31.0194 192.435 29.3961 192.435 29.3961C193.458 28.5408 193.201 26.235 193.201 26.235C193.072 25.68 192.861 25.3379 192.73 25.2087L192.689 25.1685C192.689 23.7145 191.237 23.0739 191.237 23.0739C190.982 22.8592 190.682 22.8592 190.682 22.8592C190.341 22.7755 189.87 22.2187 189.87 22.2187C189.315 23.2433 189.785 24.0113 189.785 24.0113C188.929 23.8402 184.656 24.6955 184.656 24.6955C183.633 24.9521 181.925 24.397 181.925 24.397C180.855 23.7983 181.028 23.0303 181.028 23.0303C181.239 21.791 182.266 21.9621 182.266 21.9621H182.566C183.463 21.791 184.104 22.1331 184.104 22.1331C185.897 22.9867 189.098 22.1331 189.098 22.1331C190.636 21.5344 191.066 19.5271 191.066 19.5271C190.039 20.4679 189.058 20.2969 189.058 20.2969C188.841 20.3405 188.627 20.3976 188.418 20.4679C188.589 19.7418 189.441 19.3997 189.441 19.3997C188.332 18.9301 187.136 19.7418 187.136 19.7418C186.539 20.3824 185.213 20.5953 185.213 20.5953C186.194 20.2113 186.709 19.1431 186.709 19.1431C186.068 19.5271 184.916 19.4416 184.916 19.4416C183.163 19.0994 181.241 20.6791 181.241 20.6791C179.488 22.3024 180.344 24.0968 180.344 24.0968C180.558 24.6082 181.07 24.994 181.625 25.2069C182.437 25.5927 183.289 25.6782 183.289 25.6782C185.127 25.8912 188.887 25.4635 188.887 25.4635C189.228 25.378 189.613 25.378 189.613 25.378C188.927 25.8912 188.802 27.045 188.802 27.045C189.484 26.7901 189.996 26.7901 189.996 26.7901L189.956 26.9612C190.767 26.832 191.448 26.9612 191.448 26.9612C191.878 27.0013 191.963 26.6208 191.963 26.6208C192.475 27.3871 191.448 28.2441 191.448 28.2441C190.851 28.8411 189.528 28.3698 189.528 28.3698C188.802 28.0294 186.92 27.8985 186.92 27.8985C186.579 27.4726 182.692 26.7046 182.692 26.7046C182.477 26.3188 182.095 26.4899 182.095 26.4899L181.751 26.4462C181.41 25.6346 180.642 26.1059 180.642 26.1059C180.087 26.0203 179.19 25.5089 178.675 25.2087C178.42 25.0813 178.292 24.9538 178.292 24.9538C180.342 22.6899 180.213 20.2567 180.213 20.2567C179.958 16.7535 177.097 16.1984 177.097 16.1984C176.671 15.1738 175.304 15.0883 175.304 15.0883L175.218 15.303L175.344 15.6015C175.304 15.8162 175.559 16.2002 175.559 16.2002L175.004 16.3276L171.543 14.3203C170.692 14.1073 171.032 14.8317 171.032 14.8317L171.203 15.0883L174.193 17.4377C173.893 18.0347 172.87 18.8045 172.87 18.8045L172.484 18.89L172.013 19.4014L172.057 20.0857C171.842 20.2567 171.371 20.2567 171.371 20.2567L171.331 20.6844C171.627 21.112 172.483 21.112 172.483 21.112L173.165 21.7945C173.38 21.9237 173.551 21.7526 173.551 21.7526L174.148 21.0701L174.96 20.6861C175.175 20.8135 175.56 20.8572 175.56 20.8572C175.005 21.0719 174.408 21.8818 174.408 21.8818C173.937 21.7526 173.167 21.9237 173.167 21.9237L173.081 22.3932L173.057 22.5067L172.87 22.3932C172.57 21.1556 171.629 21.9237 171.629 21.9237C171.477 22.0875 171.386 22.2988 171.372 22.5218C171.358 22.7448 171.422 22.9657 171.552 23.1473ZM171.571 24.0409C171.674 23.9938 171.758 23.8472 171.758 23.6727C171.758 23.6232 171.747 23.5744 171.727 23.5295L171.784 23.3864C171.918 23.4947 172.085 23.5534 172.257 23.5522C172.697 23.5382 172.868 22.9029 172.868 22.9029H172.975L172.868 23.4143C172.439 23.6709 172.057 24.5245 172.057 24.5245L171.571 24.0409ZM171.839 22.8209C171.61 22.3461 172.1 22.1349 172.1 22.1349C172.697 22.0493 172.572 22.8173 172.572 22.8173C172.411 23.0181 172.282 23.0931 172.175 23.1019C171.943 23.1211 171.842 22.8243 171.839 22.8209ZM148.521 31.8311C148.179 32.1313 147.58 32.5572 146.812 32.6009L146.47 33.1524L147.281 33.3671L147.453 33.4527L148.179 33.6674C148.179 33.6674 148.221 33.1961 148.778 33.2816C148.778 33.2816 149.162 32.2553 150.7 32.5991C150.7 32.5991 150.956 32.5136 151.297 32.6846C151.426 32.7702 151.553 32.8557 151.681 32.9814L151.51 32.4263C151.51 32.4263 151.681 32.1715 152.107 32.2553C152.107 32.2553 151.936 32.0842 151.808 31.8294C151.627 31.5794 151.524 31.2821 151.51 30.9741C151.51 30.9741 152.021 30.7629 152.534 30.8484V30.3771H152.833L152.278 30.0367C152.278 30.0367 150.867 31.6147 148.219 30.8484C147.695 30.7003 147.193 30.4849 146.725 30.2078C146.725 30.2078 147.238 31.489 148.861 31.4453C148.863 31.4453 148.736 31.6164 148.521 31.8311ZM141.645 31.8311C142.498 32.0859 143.994 32.2169 143.994 32.2169C143.865 32.3425 143.738 32.4717 143.61 32.5572C143.141 32.943 142.757 33.0285 142.757 33.0285C142.5 33.4544 142.629 34.2259 142.629 34.2259C142.757 34.397 143.141 34.5227 143.483 34.6518C143.91 34.8229 144.336 34.952 144.336 34.952C143.815 35.0581 143.278 35.0581 142.757 34.952C142.285 34.9084 141.988 34.7775 141.988 34.7775L142.201 34.3516C142.03 33.2397 140.365 33.114 140.365 33.114L140.45 32.6026C140.663 32.3443 140.878 32.0475 140.964 31.8328C141.017 31.7536 141.06 31.668 141.091 31.578C141.177 31.6635 141.39 31.7491 141.604 31.8328L141.645 31.8311ZM172.06 35.3762C171.931 35.4617 171.845 35.5473 171.845 35.7166C171.845 35.7166 171.931 35.9714 172.486 36.1425C172.486 36.1425 172.572 35.6747 172.443 35.1615C172.441 35.1615 172.23 35.247 172.06 35.3762ZM152.58 34.6047L152.878 34.5192C152.878 34.5192 152.58 34.2643 152.538 34.0933C152.538 34.0933 152.538 33.7529 152.154 33.4527L152.196 33.7529V34.1788L152.323 34.308V34.6483L152.58 34.6047ZM153.947 36.1023L153.99 36.7429L154.545 36.1425C154.501 36.1436 154.458 36.1325 154.42 36.1103C154.382 36.0881 154.351 36.0557 154.331 36.0168C154.118 35.8457 153.99 35.5909 153.99 35.5909L153.947 36.1023ZM155.877 31.8468C156.202 31.8102 156.474 31.8328 156.628 32.0179C156.625 31.7456 156.743 31.4733 157.15 31.4035C157.15 31.4035 156.253 31.2324 155.441 30.9322C154.929 30.7611 154.416 30.5464 154.245 30.2916L153.861 30.4207L153.561 30.5464V30.6756C153.561 30.6756 154.373 30.8013 154.8 31.1469V30.9723C154.8 30.9741 155.577 31.1207 155.877 31.8468ZM158.131 33.5382C158.131 33.4527 158.175 33.3671 158.175 33.238L158.815 33.924C158.815 33.924 158.941 34.3499 158.686 34.6064C158.686 34.6064 158.561 34.4808 158.389 34.3952C158.283 34.3413 158.165 34.3121 158.046 34.3097L158.005 33.7546C158.005 33.7529 158.091 33.6674 158.131 33.5382ZM106.191 10.2184C106.191 10.2184 112.556 13.465 113.324 14.1056C114.135 14.7462 113.708 15.1738 113.708 15.1738C113.708 15.1738 113.409 15.5997 112.683 15.7708C111.955 15.8982 112.171 16.4969 112.171 16.4969L112.086 31.66C115.076 34.6064 117.896 33.0268 117.896 33.0268C118.964 32.6864 118.837 31.7456 118.837 31.7456C118.837 31.7456 119.051 17.4814 118.964 17.0101C118.879 16.4987 118.453 16.4987 118.453 16.4987C118.453 16.4987 115.804 14.8317 115.377 14.535C114.905 14.2365 115.419 13.767 115.419 13.767C115.419 13.767 119.903 10.6495 120.546 10.0508C121.186 9.49573 121.7 9.8361 121.7 9.8361C121.7 9.8361 129.089 13.9799 129.943 14.6205C130.797 15.2611 130.371 15.474 130.371 15.474L128.277 17.5669C127.85 17.9945 128.063 18.3786 128.063 18.3786L127.977 32.3879C127.422 35.9749 121.783 36.4898 121.783 36.4898C114.991 36.5754 111.831 33.6709 111.831 33.6709C109.139 32.0039 106.021 33.1559 106.021 33.1559C102.05 34.5227 101.75 37.0868 101.75 37.0868C101.62 38.9248 103.672 39.8202 103.672 39.8202C106.192 41.4436 109.865 40.4172 109.865 40.4172C112.983 39.3507 117.81 37.7274 117.81 37.7274C120.842 37.0868 123.234 37.5982 123.234 37.5982C125.968 38.1987 127.036 39.4799 127.036 39.4799C128.787 41.2725 128.66 43.5783 128.66 43.5783C128.787 48.621 122.593 50.3281 122.593 50.3281C119.818 50.8832 119.05 50.2426 119.05 50.2426C117.084 49.8132 119.177 49.602 119.177 49.602C119.177 49.602 115.588 49.8132 119.476 49.6421C123.363 49.5165 123.791 47.6383 123.791 47.6383C125.202 45.1161 123.023 44.6902 123.023 44.6902C120.032 44.2643 116.787 46.6975 116.787 46.6975C109.525 49.9424 104.015 47.2526 104.015 47.2526C98.3768 45.0742 99.103 40.8885 99.103 40.8885C99.2304 35.4652 102.649 33.3305 102.649 33.3305L102.436 16.544C102.264 16.1164 101.837 15.989 101.837 15.989C101.837 15.989 99.4871 15.0482 99.103 14.5367C98.7608 14.0235 99.316 13.8106 99.316 13.8106L104.742 10.2219C105.379 9.32292 106.191 10.2184 106.191 10.2184ZM0.937523 7.65597C0.125762 7.1009 1.02306 6.80243 1.02306 6.80243L9.18257 0.822349H30.7527C35.4086 1.24825 35.0245 7.22832 35.0245 7.22832L34.939 29.2652C27.3782 30.7175 23.7471 37.1269 23.7471 37.1269C16.6979 35.1196 4.61052 36.9122 4.61052 36.9122C3.54214 36.9978 4.26836 36.1861 4.26836 36.1861C8.4546 28.8393 16.4849 29.054 16.4849 29.054C17.0034 29.0435 17.5114 29.0575 18.0055 29.0889L18.0473 7.87939L0.937523 7.65597ZM11.7016 8.85163C13.2815 8.1255 12.983 9.19375 12.983 9.19375V21.4506C12.8556 26.619 8.79677 29.4398 8.79677 29.4398C7.60095 31.0631 3.03064 32.9412 3.03064 32.9412C1.45076 33.5382 2.38996 32.0004 2.38996 32.0004C3.8843 29.7819 3.8843 28.1987 3.8843 28.1987V13.465C3.8843 13.0373 4.05538 12.8663 4.05538 12.8663L11.7016 8.85163ZM18.7282 29.15C22.4623 29.5253 25.2013 30.8484 25.2013 30.8484L25.1455 21.3721L25.0879 21.4157C25.0791 21.4053 22.0904 17.4604 18.7421 21.5606L18.7282 29.15ZM25.1385 20.4121L25.1158 16.4376C23.9723 17.5076 21.3066 19.3072 18.7509 15.975L18.7421 20.4749C21.5563 17.6193 24.0876 19.3979 25.1385 20.4121ZM25.1088 15.4007L25.0704 8.76611C25.3689 7.65597 23.8327 7.95445 23.8327 7.95445L18.7683 7.88813L18.7561 14.6938C21.6208 19.4416 24.8155 15.7586 25.1088 15.4007ZM84.0618 5.00805C84.0618 5.00805 93.4591 1.97612 94.6549 1.67764C95.8926 1.37916 95.8088 1.97613 95.8088 1.97613C95.8088 1.97613 95.5539 28.7119 95.7669 29.6527C95.9799 30.5935 96.4076 30.3387 96.4076 30.3387C96.4076 30.3387 98.5863 31.8765 99.0559 32.0877C99.5691 32.3024 99.3125 32.8138 99.3125 32.8138L94.016 36.9157C94.016 36.9157 85.3868 33.114 84.7043 32.6881C83.8506 32.0877 84.4058 31.7473 84.4058 31.7473L85.9437 30.2095C85.9437 30.2095 86.1986 8.34195 85.7727 7.18818C85.3449 6.03441 83.9781 5.56487 83.9781 5.56487C83.6778 5.09358 84.0618 5.00805 84.0618 5.00805ZM73.5124 9.53588C73.811 10.262 74.5791 10.1346 74.5791 10.1346C77.9972 8.76785 79.3641 5.52123 79.3641 5.52123C80.2178 2.31824 78.2102 1.4647 78.2102 1.4647C76.4156 0.396455 75.0923 1.25 75.0923 1.25C73.0411 2.36014 72.486 4.49663 72.486 4.49663C71.9745 7.3156 73.5124 9.53588 73.5124 9.53588ZM71.9745 10.9881C71.9745 10.9881 66.4213 14.4058 65.9936 15.0464C65.5659 15.687 65.9098 15.9872 65.9098 15.9872C65.9098 15.9872 68.3015 17.4814 68.9421 17.738C69.6247 17.9509 69.3681 18.293 69.3681 18.293L69.5392 29.3979C69.6247 29.6981 69.5392 30.4644 69.5392 30.4644C69.5392 30.4644 68.5982 31.2341 68.0867 31.6618C67.4897 32.1732 67.9576 32.6881 67.9576 32.6881L76.5448 37.0013C76.5448 37.0013 82.3528 32.8156 82.866 32.6026C83.3775 32.3879 82.866 31.962 82.866 31.962C82.866 31.962 80.3452 30.5098 79.9193 30.2951C79.4933 30.0804 79.6644 29.6545 79.6644 29.6545C79.6644 29.6545 79.3222 18.6753 79.5788 17.7362C79.7918 16.839 80.0903 17.1375 80.0903 17.1375C80.0903 17.1375 80.8585 16.9246 81.5428 16.4969C82.1835 16.0693 81.5864 15.6853 81.5864 15.6853C81.5864 15.6853 73.598 11.5013 73.0009 10.9881C72.4004 10.4749 71.9745 10.9881 71.9745 10.9881ZM36.5834 29.4817C36.5625 29.3961 37.2451 35.9313 45.6175 36.9995L51.1707 32.5171C51.1707 32.5171 51.4692 32.0022 51.8969 32.4281L61.2941 36.9995L67.0184 32.5171C67.0184 32.5171 67.275 32.0022 66.8473 31.4907L62.874 28.8411V17.9492C62.874 17.9492 62.8321 17.4377 63.1725 17.3522L64.7105 16.1146C64.7105 16.1146 64.9671 15.687 64.4556 15.1319C63.9843 14.535 54.6307 9.92162 54.6307 9.92162C54.6307 9.92162 54.2886 9.41019 53.4331 10.0072C53.4331 10.0072 43.2242 14.1073 39.209 19.3595C39.2107 19.3595 36.0073 21.4087 36.5834 29.4817ZM44.5928 25.9802C44.8494 26.448 42.8837 23.2031 43.8247 19.658C43.8247 19.658 43.9539 16.5405 47.5832 14.9609L52.4957 18.1639L52.4101 30.8047C52.4101 30.8047 51.7695 31.8747 50.1896 31.1486C50.1896 31.1486 46.1308 29.1413 44.5928 25.9802ZM280.002 11.3285C280.002 11.3285 274.45 14.7025 274.021 15.3868C273.595 16.0274 273.935 16.3259 273.935 16.3259C273.935 16.3259 276.329 17.82 276.969 18.0347C277.652 18.2494 277.395 18.6317 277.395 18.6317L277.566 29.7365C277.652 30.0367 277.566 30.803 277.566 30.803C277.566 30.803 276.626 31.5291 276.114 31.9585C275.517 32.4699 275.988 32.9814 275.988 32.9814L284.574 37.3381C284.574 37.3381 290.384 33.1524 290.895 32.8959C291.407 32.6846 290.895 32.2553 290.895 32.2553C290.895 32.2553 288.416 30.803 287.948 30.5918C287.519 30.3771 287.69 29.9512 287.69 29.9512C287.69 29.9512 287.349 18.9738 287.604 18.0347C287.819 17.1811 288.119 17.4377 288.119 17.4377C288.119 17.4377 288.886 17.223 289.572 16.7971C290.212 16.3695 289.612 16.0291 289.612 16.0291C289.612 16.0291 281.624 11.8434 281.026 11.3302C280.471 10.8171 280.002 11.3285 280.002 11.3285ZM195.081 7.69787C193.758 6.97174 194.699 6.62962 194.699 6.62962L201.36 2.35838C201.701 2.0599 202.001 2.48756 202.001 2.48756L208.067 6.03266C208.067 6.03266 216.267 1.67589 216.824 1.33552C217.164 1.12083 217.465 1.42106 217.465 1.42106L224.387 5.26464L231.348 0.907885C232.115 0.267288 232.33 0.693187 232.33 0.693187L240.489 5.47759C241.172 5.90524 240.871 6.03266 240.871 6.03266V28.1586C241.172 30.8885 243.479 31.9603 243.479 31.9603C244.12 32.4717 243.82 32.8575 243.82 32.8575L237.539 37.3399C232.115 35.5019 231.603 31.105 231.603 31.105V9.96177C231.474 9.23564 230.963 9.06458 230.963 9.06458L226.769 6.9281L226.801 16.3241H231.305L226.822 22.7859L226.85 30.5639L229.983 32.6846C230.409 33.1961 229.728 33.2816 229.728 33.2816L223.233 37.3381L213.58 32.2134C212.683 31.6129 213.366 31.2725 213.366 31.2725L215.459 29.9495V23.1577H210.862L210.88 31.8765L212.428 32.8557C212.9 33.3671 212.343 33.7075 212.343 33.7075L205.892 37.3381L197.478 32.8959C196.752 32.4246 197.518 32.0441 197.518 32.0441L199.911 30.6773V11.1155L195.298 7.78513L195.081 7.69787ZM226.19 6.66453C224.915 6.2683 225.113 7.05901 225.113 7.05901L225.198 15.6434V16.3276H226.225L226.19 6.66453ZM226.246 23.1595H225.198V29.4398C225.238 29.6108 225.753 29.822 225.753 29.822L226.268 30.1729L226.246 23.1595ZM210.861 21.9446L214.645 16.3259H215.457V9.96177C215.331 9.6214 214.86 9.27928 214.86 9.27928L210.836 7.18644L210.861 21.9446ZM210.258 7.04854C209.078 7.07472 209.01 7.87067 209.01 7.87067L208.921 30.6791C208.921 30.8048 209.307 30.8903 209.307 30.8903L210.299 31.5169L210.258 7.04854ZM244.619 29.4817C244.598 29.3961 245.281 35.9313 253.655 36.9995L259.207 32.5171C259.207 32.5171 259.507 32.0022 259.933 32.4281L269.33 36.9995L275.054 32.5171C275.054 32.5171 275.309 32.0022 274.883 31.4907L270.912 28.8411V17.9492C270.912 17.9492 270.872 17.4377 271.212 17.3522L272.75 16.1146C272.75 16.1146 273.005 15.687 272.495 15.1319C272.024 14.535 262.668 9.92162 262.668 9.92162C262.668 9.92162 262.328 9.41019 261.471 10.0072C261.471 10.0072 251.262 14.1073 247.247 19.3595C247.245 19.3595 244.043 21.4087 244.619 29.4817ZM252.629 25.9802C252.884 26.448 250.92 23.2031 251.862 19.658C251.862 19.658 251.988 16.5405 255.619 14.9609L260.532 18.1639L260.446 30.8047C260.446 30.8047 259.805 31.8747 258.224 31.1486C258.224 31.1486 254.167 29.1413 252.629 25.9802ZM292.091 5.00805C292.091 5.00805 301.443 1.97612 302.684 1.67764C303.878 1.37916 303.836 1.97613 303.836 1.97613C303.836 1.97613 303.581 29.0121 303.792 29.9529C304.007 30.8903 304.433 30.6791 304.433 30.6791C304.433 30.6791 306.612 32.2169 307.083 32.4281C307.595 32.6428 307.338 33.1542 307.338 33.1542L302.043 37.2561C302.043 37.2561 293.414 33.4544 292.732 32.9849C291.876 32.4298 292.431 32.0475 292.431 32.0475L293.969 30.5516C293.969 30.5516 294.224 8.30006 293.798 7.14629C293.372 5.99251 292.005 5.56661 292.005 5.56661C291.707 5.04995 292.091 5.00805 292.091 5.00805ZM281.54 9.87799C281.84 10.6041 282.606 10.4749 282.606 10.4749C286.026 9.06458 287.393 5.8197 287.393 5.8197C288.245 2.65861 286.237 1.80507 286.237 1.80507C284.445 0.694934 283.121 1.59037 283.121 1.59037C281.068 2.70051 280.517 4.837 280.517 4.837C280.002 7.65597 281.54 9.87799 281.54 9.87799Z" fill="black"/>
<path fill-rule="evenodd" clip-rule="evenodd" d="M149.589 14.6185L150.188 14.3201V14.7477L150.401 14.5348L150.656 15.1317L150.315 15.1754L150.53 15.3883C151 15.7304 150.701 16.0289 150.701 16.0289L150.487 16.2C149.802 16.4548 150.017 15.3883 150.017 15.3883L149.802 15.6013L149.547 14.9607H149.889L149.589 14.6185Z" fill="black"/>
<path fill-rule="evenodd" clip-rule="evenodd" d="M148.948 17.3086C149.462 17.3505 149.504 17.7362 149.504 17.7362C149.545 17.0101 150.101 17.6507 150.101 17.6507C149.92 17.7068 149.758 17.8098 149.631 17.9492C149.631 18.3768 150.272 18.3768 150.272 18.3768C150.827 18.0766 150.741 17.7362 150.741 17.7362C150.827 17.265 150.272 17.5215 150.272 17.5215L150.057 17.052L150.399 17.0101V16.8391L150.101 16.668L151.042 16.1985L150.912 16.5825L150.998 16.668L151.211 16.4114L151.382 17.0956C150.954 17.0101 151.125 17.3941 151.125 17.3941C151.368 17.656 151.562 17.6804 151.703 17.6245C151.823 17.5667 151.92 17.4702 151.979 17.3505C152.236 17.052 151.937 16.9228 151.937 16.9228C151.597 17.0503 151.553 17.1794 151.553 17.1794C151.382 16.2822 151.852 16.4516 151.852 16.4516C151.724 16.0257 151.852 15.811 151.852 15.811C152.194 15.982 152.236 16.3224 152.236 16.3224C152.747 15.7673 152.833 16.3643 152.833 16.3643C152.15 16.4934 152.449 16.8775 152.449 16.8775C152.609 17.1305 152.735 17.1707 152.834 17.1079C153.051 16.9665 153.131 16.3171 153.131 16.3171C152.747 15.7621 151.764 15.6626 151.764 15.7185L151.722 16.0658L151.209 16.1513L151.124 15.8947L150.996 15.8528V15.6382C152.234 15.1686 153.346 16.1932 153.346 16.1932L153.388 17.9021C151.551 18.1587 149.287 19.6528 149.287 19.6528L148.39 18.115C148.69 16.8775 149.842 16.1932 149.842 16.1932L150.013 16.3643L149.799 16.6209L149.884 16.9193L149.373 17.347L148.945 17.1323C148.762 17.457 148.584 17.7729 148.646 18.115L148.945 18.7556C149.544 19.0122 149.331 18.2861 149.331 18.2861C149.16 18.0714 148.945 18.5409 148.945 18.5409C148.561 17.8148 149.074 17.8567 149.074 17.8567C148.863 17.6507 148.948 17.3086 148.948 17.3086ZM135.066 32.9413C134.511 34.3935 134.81 36.2717 134.81 36.2717H134.468V33.9222C133.485 33.7075 133.913 33.3253 133.913 33.3253C134.297 32.8121 135.066 32.9413 135.066 32.9413ZM136.945 37.2544C137.16 37.5948 137.116 38.066 137.116 38.066C137.03 37.7257 136.688 37.7658 136.688 37.7658C136.519 37.2544 136.945 37.2544 136.945 37.2544ZM137.757 37.2544C137.971 37.1287 137.971 36.8285 137.971 36.8285C138.443 37.0397 138.142 37.7257 138.142 37.7257C138.057 37.4254 137.757 37.2544 137.757 37.2544ZM137.201 35.5909C137.886 35.4618 138.057 36.1023 138.057 36.1023C138.355 36.4026 138.355 35.9732 138.355 35.9732C137.97 34.7758 137.201 35.5909 137.201 35.5909ZM138.141 36.4026C138.354 36.4881 138.439 36.317 138.439 36.317C138.61 36.6993 138.396 36.9995 138.396 36.9995C138.354 36.6592 138.141 36.6592 138.141 36.6592V36.4026Z" fill="black"/>
<path fill-rule="evenodd" clip-rule="evenodd" d="M138.654 35.8875C138.226 34.3096 137.116 35.3761 137.116 35.3761C136.818 34.3951 137.245 33.6236 137.245 33.6236C137.886 33.7091 138.74 33.6236 138.74 33.6236C138.953 33.6236 138.867 33.7528 138.867 33.7528C139.038 34.5191 138.569 34.5191 138.569 34.5191C138.911 34.8193 138.996 34.6901 138.996 34.6901C139.681 34.7756 140.278 33.4124 140.278 33.4124C140.918 33.3688 141.688 33.9239 141.688 33.9239C142.116 34.3096 141.688 34.4353 141.688 34.4353C141.089 34.3096 140.021 34.5208 140.021 34.5208C139.894 34.6063 139.935 34.8647 139.935 34.8647C140.021 35.1195 140.065 35.9731 140.065 35.9731C139.509 35.8456 138.654 35.8875 138.654 35.8875ZM141.473 31.1887C141.645 30.5481 142.926 29.8656 142.926 29.8656C143.567 29.6107 144.506 29.3943 144.506 29.3943C145.618 29.4379 146.386 30.6318 146.386 30.6318L145.958 30.9722L146.129 31.1014C146.515 30.7156 146.941 31.145 146.941 31.145C147.325 31.3562 148.264 31.7001 148.264 31.7001C147.837 32.3372 146.513 32.0824 146.513 32.0824C146.555 32.7683 145.787 33.2344 145.787 33.2344C146.3 33.6638 148.264 34.0495 148.264 34.0495C148.991 33.0232 149.759 33.7493 149.759 33.7493C149.93 33.875 150.144 34.0897 150.144 34.0897C149.717 34.3044 149.844 34.8594 149.844 34.8594C148.991 35.0305 146.599 35.0305 146.599 35.0305C144.249 34.6866 143.053 34.0897 143.053 34.0897C142.84 33.9605 142.97 33.7894 142.97 33.7894L142.926 33.5346C142.884 33.2344 143.141 33.2798 143.141 33.2798C143.994 33.1506 144.72 32.2133 144.72 32.2133C144.935 31.7018 144.464 31.7874 144.464 31.7874C143.011 31.7036 141.473 31.1887 141.473 31.1887Z" fill="black"/>
<path fill-rule="evenodd" clip-rule="evenodd" d="M149.078 33.2835C149.633 32.5172 150.401 33.0286 150.401 33.0286C150.572 33.1543 150.743 33.5401 150.743 33.5401C150.401 33.5401 150.316 33.8403 150.316 33.8403C150.017 33.2381 149.078 33.2835 149.078 33.2835ZM150.103 34.7759C150.017 34.4355 150.317 34.3081 150.317 34.3081C150.488 34.4338 150.658 34.734 150.658 34.734C150.487 34.7759 150.103 34.7759 150.103 34.7759ZM150.401 34.0532C150.785 34.2243 150.829 34.6903 150.829 34.6903L151.127 34.6502C151.213 34.0096 150.871 33.6692 150.871 33.6692C150.487 33.7094 150.401 34.0532 150.401 34.0532ZM150.829 32.8977C151.044 33.0269 151 33.4528 151 33.4528C151.298 33.6675 151.384 34.0934 151.384 34.0934C151.599 33.9642 151.939 34.0079 151.939 34.0079C151.768 32.8122 150.829 32.8977 150.829 32.8977ZM151.47 34.2645L151.511 34.6048L151.981 34.5647C152.023 34.3098 151.895 34.1388 151.895 34.1388C151.641 34.0934 151.47 34.2645 151.47 34.2645ZM154.46 25.0395C154.546 25.3799 154.46 25.9803 154.46 25.9803C154.331 26.2352 153.99 26.7466 153.99 26.7466L154.587 27.347L156.042 27.3872C156.213 26.8758 157.065 26.0205 157.065 26.0205C157.62 23.4581 159.029 22.3898 159.029 22.3898V22.1769C158.688 22.0914 158.646 21.7492 158.646 21.7492C158.643 21.6164 158.673 21.4849 158.732 21.366C158.792 21.2472 158.879 21.1444 158.987 21.0667C159.158 21.2378 159.158 20.9376 159.158 20.9376C159.072 20.8521 158.943 20.8521 158.943 20.8521L158.857 21.0231L158.475 21.6201C158.304 22.1751 157.234 23.7985 157.234 23.7985C156.894 24.1406 155.781 25.3781 155.781 25.3781L155.61 25.2926C155.23 25.3397 154.46 25.0395 154.46 25.0395ZM156.939 32.2571L157.236 31.7457L157.45 31.7893C157.536 32.3863 157.922 32.8122 157.922 32.8122L157.878 33.6675C157.752 33.3673 157.452 33.3673 157.452 33.3673C157.665 32.601 156.939 32.2571 156.939 32.2571ZM155.013 36.2281H154.715L153.989 37.0398C153.945 37.5111 153.348 37.7258 153.348 37.7258C154.502 37.6402 154.673 37.2143 154.673 37.2143C154.614 37.4363 154.527 37.6503 154.416 37.8514C155.141 37.4692 154.971 37.2999 154.971 37.2999C155.101 36.8705 155.057 36.8286 155.057 36.8286C155.101 36.6139 155.141 36.5737 155.141 36.5737C155.23 36.2281 155.013 36.2281 155.013 36.2281ZM155.527 36.572C155.998 36.6575 156.253 36.6121 156.253 36.6121C156.853 37.1672 156.213 37.9789 156.213 37.9789C156.042 37.5931 156.127 37.4238 156.127 37.4238C156.213 37.2126 156.042 36.9525 156.042 36.9525C155.783 37.2964 155.953 37.8933 155.953 37.8933C155.441 37.6786 155.315 37.1672 155.315 37.1672C155.315 36.8286 155.527 36.572 155.527 36.572ZM160.31 31.6165L160.696 31.3198C160.867 31.7457 160.57 32.1716 160.57 32.1716C160.518 31.9722 160.43 31.7841 160.31 31.6165ZM159.713 32.1716C159.842 32.0459 160.013 31.7893 160.013 31.7893C160.268 32.1716 160.139 32.6865 160.139 32.6865C159.928 32.5573 160.013 32.6429 160.013 32.6429L159.713 32.1716Z" fill="black"/>
<path fill-rule="evenodd" clip-rule="evenodd" d="M159.583 27.8583V29.3106C160.825 29.1814 160.696 30.1222 160.696 30.1222C161.207 30.2933 160.867 31.1887 160.867 31.1887C161.081 31.7037 160.826 32.3006 160.826 32.3006C161.467 33.793 163.387 34.3498 163.387 34.3498L163.302 27.8147L159.583 27.8583ZM159.329 25.2942L159.372 26.1495C158.686 27.6017 159.072 29.5654 159.072 29.5654C158.999 29.5772 158.93 29.6065 158.87 29.6509C158.811 29.6953 158.763 29.7534 158.732 29.8203C158.26 26.7464 159.329 25.2942 159.329 25.2942ZM162.062 33.9239L162.019 37.1287L163.386 38.237L164.541 37.2142V34.3097L164.07 34.3498V36.8284L163.386 37.5947L162.618 37.0396V34.3097L162.062 33.9239Z" fill="black"/>
<path fill-rule="evenodd" clip-rule="evenodd" d="M163.344 35.4165C163.469 35.4165 163.558 35.331 163.558 35.1617C163.558 34.9924 163.469 34.8649 163.344 34.8649C163.258 34.8649 163.173 34.9906 163.173 35.1617C163.173 35.3327 163.26 35.4165 163.344 35.4165ZM163.73 36.1025C163.815 36.1025 163.901 35.9733 163.901 35.8476C163.901 35.6766 163.815 35.5474 163.73 35.5474C163.6 35.5474 163.515 35.6766 163.515 35.8476C163.515 35.9733 163.6 36.1025 163.73 36.1025ZM163.386 36.6139C163.471 36.6139 163.56 36.4882 163.56 36.3591C163.56 36.2299 163.471 36.1042 163.386 36.1042C163.26 36.1042 163.174 36.2299 163.174 36.3591C163.174 36.4882 163.26 36.6139 163.386 36.6139ZM163.045 36.0571C163.174 36.0571 163.26 35.9314 163.26 35.7604C163.26 35.6312 163.174 35.502 163.045 35.502C162.919 35.502 162.834 35.6312 162.834 35.7604C162.834 35.9314 162.918 36.0571 163.045 36.0571ZM159.372 32.601C159.329 32.2572 159.498 32.2153 159.498 32.2153C159.669 32.6412 160.013 32.8977 160.013 32.8977V32.8576C160.139 33.1543 160.524 33.4546 160.524 33.4546C160.568 33.7548 160.269 33.7548 160.269 33.7548C159.713 33.2835 159.372 32.601 159.372 32.601ZM160.224 32.8559C160.439 32.601 160.395 32.3846 160.395 32.3846C160.524 32.5993 160.61 32.5993 160.61 32.5993L160.739 32.5137L160.994 32.896C160.694 32.9396 160.523 33.2818 160.523 33.2818C160.269 33.1526 160.224 32.8559 160.224 32.8559ZM158.646 33.2381L158.943 33.6675C158.943 33.4965 159.028 33.3673 159.028 33.3673L159.372 33.0269L159.201 32.7267L158.857 33.1124C158.772 33.1526 158.646 33.2381 158.646 33.2381ZM158.176 32.4719L158.431 32.8122C158.475 32.6412 158.56 32.601 158.56 32.601L158.986 32.2153L158.732 32.0442L158.176 32.4719ZM157.108 27.7293V28.2006L157.234 28.1587L157.876 28.1151L157.108 29.0105L157.619 29.3526H158.346V29.0105H157.579L158.346 28.1587V27.773L158.217 27.8149H157.234L157.108 27.7293ZM157.194 26.6628L157.15 27.0887L157.234 27.0032L158.217 27.1324L158.346 27.3034L158.431 26.792H158.26L157.365 26.6628L157.194 26.5354V26.6628ZM157.96 24.357L158.26 24.57L158.045 24.6555C157.705 24.954 157.92 25.1251 157.92 25.1251C158.131 25.2542 158.175 24.9976 158.175 24.9976C158.515 24.5281 158.772 24.7829 158.772 24.7829C159.201 25.0814 158.901 25.5527 158.901 25.5527L158.772 25.7238L158.732 25.8512L158.391 25.7238L158.562 25.5963C158.733 25.4672 158.688 25.256 158.688 25.256C158.602 24.8702 158.391 25.256 158.391 25.256C157.876 25.7674 157.621 25.2123 157.621 25.2123C157.405 24.8248 157.96 24.357 157.96 24.357ZM159.201 22.9467V23.2888C158.686 23.1596 158.73 23.6728 158.73 23.6728C158.855 24.2698 159.285 24.1842 159.285 24.1842V24.4408C158.684 24.5263 158.473 23.9695 158.473 23.9695C158.26 22.9903 159.201 22.9467 159.201 22.9467ZM159.583 27.6438H163.3V22.1787L159.414 22.135L159.583 27.6438ZM159.287 16.7537C160.272 15.8948 161.463 15.3061 162.743 15.0448V15.8984C161.465 15.729 159.287 16.7537 159.287 16.7537ZM163.901 15.0885V15.8565C166.547 15.7709 167.788 16.9247 167.788 16.9247C166.205 15.0012 163.901 15.0885 163.901 15.0885ZM162.96 15.0448V15.9001H163.686V15.0448H162.96ZM158.217 17.3087C157.962 16.1131 158.857 16.5826 158.857 16.5826L158.217 17.3087ZM159.157 16.3696C159.072 15.1321 159.884 15.8146 159.884 15.8146L159.157 16.3696ZM160.31 15.558C160.269 14.3204 161.08 15.0466 161.08 15.0466L160.31 15.558ZM161.422 14.961C161.593 13.3377 162.277 14.6189 162.277 14.6189L161.422 14.961ZM162.745 14.1476H163.901C164.072 14.4042 163.73 14.7882 163.73 14.7882C163.344 14.9174 162.96 14.7463 162.96 14.7463C162.363 14.6189 162.745 14.1476 162.745 14.1476ZM162.789 12.2258H163.901L163.56 12.739L163.771 12.9537L164.026 12.6098L164.07 13.6781L163.515 13.2522L163.771 13.8928L162.789 13.8491L163.215 13.336L163.089 13.2086L162.659 13.5926L162.617 12.568L163.045 12.9537L163.174 12.8245L162.789 12.2258ZM167.572 16.0275L168.213 16.6262C168.429 15.3014 167.572 16.0275 167.572 16.0275ZM167.231 15.7709L166.462 15.3433C167.357 14.4479 167.231 15.7709 167.231 15.7709ZM165.353 14.7044L166.119 15.0466C166.119 13.7217 165.353 14.7044 165.353 14.7044ZM165.053 14.6608C164.967 14.0621 164.627 14.0621 164.627 14.0621C164.241 13.9766 164.197 14.6172 164.197 14.6172L165.053 14.6608ZM159.372 21.1959C163.471 20.3843 167.146 21.1959 167.146 21.1959C167.657 21.2815 167.446 21.6655 167.446 21.6655C167.06 21.7929 166.891 21.7074 166.891 21.7074C163.73 21.0668 159.5 21.8365 159.5 21.8365C158.859 21.8784 158.988 21.5799 158.988 21.5799C159.117 21.1104 159.372 21.1959 159.372 21.1959ZM163.515 22.1787V27.6892H167.06L167.188 22.1787H163.515ZM167.06 27.8585H163.515L163.558 34.3936C165.522 34.0533 166.078 32.8559 166.078 32.8559C166.163 32.2554 167.059 29.7803 167.059 29.7803L167.06 27.8585ZM164.838 34.2243V34.8649C165.608 35.3764 166.547 35.6312 166.547 35.6312C166.933 35.502 166.762 35.1599 166.762 35.1599C166.637 35.0589 166.492 34.9867 166.336 34.9487C165.524 34.8649 164.838 34.2243 164.838 34.2243ZM166.165 32.9833L166.376 33.198L165.608 34.3099L165.479 34.0096L166.165 32.9833ZM166.545 33.3271L165.823 34.35C166.931 35.0761 167.572 33.369 167.572 33.369C166.931 33.5384 166.545 33.3271 166.545 33.3271ZM167.275 24.954V25.9804C167.657 26.6628 167.743 28.1151 167.743 28.1151L168.087 27.5181C168.043 26.0205 167.275 24.954 167.275 24.954ZM164.796 36.7832V37.2545C165.137 37.5547 166.034 37.7659 166.034 37.7659C166.249 37.6804 166.034 37.3837 166.034 37.3837C165.524 37.3837 164.796 36.7832 164.796 36.7832Z" fill="black"/>
<path fill-rule="evenodd" clip-rule="evenodd" d="M166.205 36.6138L166.42 35.8476C167.146 35.8039 166.891 34.9923 166.891 34.9923C167.488 34.8212 168.169 33.7111 168.169 33.7111L168.344 34.1405L168.598 34.6519C168.724 34.9067 168.81 35.0376 168.77 35.0376L168.384 35.378V35.1633L167.658 35.8039L167.912 34.3953L167.23 35.9732C166.846 36.4026 166.205 36.6138 166.205 36.6138ZM166.334 36.9996C166.931 37.8968 168.899 37.8968 168.899 37.8968C168.684 37.3853 168.129 37.1706 168.129 37.1706C168.984 36.8303 169.752 37.5966 169.752 37.5966C170.224 38.0259 170.733 38.0259 170.733 38.0259C170.612 37.8512 170.469 37.6928 170.308 37.5547C170.562 37.6803 170.819 37.5948 170.819 37.5948C170.522 37.0834 169.667 36.6138 169.667 36.6138C170.564 36.1425 171.334 37.2143 171.334 37.2143C171.716 37.7659 172.06 37.8968 172.06 37.8968L171.802 37.0415C172.06 37.8112 173.083 38.0259 173.083 38.0259C173.212 37.8968 173.083 37.6402 173.083 37.6402C172.786 37.6402 172.528 37.2143 172.528 37.2143L172.488 36.359C171.547 36.2298 171.547 35.7184 171.547 35.7184C171.676 34.9521 172.359 34.8666 172.359 34.8666L172.273 33.8821C172.828 33.3707 173.897 33.6709 173.897 33.6709C173.811 33.0705 173.342 33.2415 173.342 33.2415C173.342 32.7737 172.79 32.7301 172.79 32.7301V32.8593L171.248 34.0567C171.463 35.2506 170.908 35.6346 170.908 35.6346C169.841 36.3206 169.073 35.3798 169.073 35.3798L168.473 35.7655C169.028 35.8057 169.414 36.3206 169.414 36.3206L169.328 36.4061C169.053 36.1821 168.732 36.0212 168.387 35.9348L167.876 36.146L167.621 36.3607L166.334 36.9996Z" fill="black"/>
<path fill-rule="evenodd" clip-rule="evenodd" d="M169.751 32.6863C170.222 32.0004 170.433 30.8902 170.433 30.8902L170.608 31.1049L170.353 31.9166L170.524 32.0876L170.821 31.4052L171.035 31.66L170.695 32.2151L170.95 32.4263L171.29 31.9585L171.505 32.1295L171.034 32.6008L171.245 32.8975L171.631 32.3006L171.931 32.5153L171.42 33.0267L171.631 33.1978L172.146 32.7719L172.317 32.8975L171.076 33.9239C170.648 32.9831 169.751 32.6863 169.751 32.6863ZM174.15 33.7092C175.22 33.4544 174.324 32.8975 174.324 32.8975C173.383 32.5572 173.254 32.7265 173.254 32.7265C173.598 32.8557 173.555 33.0669 173.555 33.0669C174.024 33.1122 174.15 33.7092 174.15 33.7092ZM174.193 34.7356L174.579 33.7947C173.979 34.0094 173.598 33.8803 173.598 33.8803C172.957 33.7947 172.697 33.9658 172.697 33.9658C172.315 34.1805 172.615 34.2241 172.615 34.2241C173.083 34.6902 174.193 34.7356 174.193 34.7356ZM175.431 34.6046L175.646 34.8647L176.672 34.5209L176.072 34.9503L177.184 35.0358L176.672 34.2643L175.431 34.6046ZM172.357 15.7288C172.271 14.9608 171.845 14.6187 171.845 14.6187C171.374 14.3202 171.334 14.5768 171.334 14.5768C171.334 14.9608 171.631 15.0883 171.631 15.0883L172.357 15.7288ZM173.338 16.3258C173.253 15.8563 173.212 15.8144 173.212 15.8144C173.041 15.5159 172.912 15.3448 172.912 15.3448L172.357 14.9608C172.528 15.3029 172.572 15.7288 172.572 15.7288L173.338 16.3258ZM173.382 15.6433C173.637 16.071 173.596 16.4113 173.596 16.4113L174.279 17.0956C174.279 16.4113 173.939 15.9854 173.939 15.9854L173.383 15.5578L173.382 15.6433ZM172.06 20.3841C171.76 20.5551 171.545 20.4696 171.545 20.4696C171.545 20.8973 172.315 20.8973 172.315 20.8973C172.615 20.8973 172.87 20.5988 172.87 20.5988V20.4277C172.615 20.5988 172.315 20.6424 172.315 20.6424L172.06 20.3841ZM172.998 23.3305L173.083 23.032C173.895 22.8173 173.298 22.2203 173.298 22.2203C173.598 22.0929 173.684 22.1785 173.684 22.1785C174.066 21.9638 174.195 22.4333 174.195 22.4333C174.495 22.1785 174.707 22.3478 174.707 22.3478C174.066 22.9465 174.836 23.1594 174.836 23.1594C175.222 23.1594 175.307 22.7754 175.307 22.7754C175.136 22.6026 175.093 22.4769 175.093 22.4769C175.219 22.5252 175.334 22.5975 175.433 22.6899C175.393 22.4333 175.648 22.4333 175.648 22.4333C175.773 22.648 175.733 22.8173 175.733 22.8173C175.862 22.6899 176.119 22.8173 176.119 22.8173C175.733 23.2449 176.245 23.629 176.245 23.629C176.845 23.9693 176.76 22.9884 176.76 22.9884C177.186 22.9884 177.142 23.3724 177.142 23.3724L177.4 23.1594C177.486 23.416 177.486 23.5871 177.486 23.5871C177.657 23.3724 177.912 23.5452 177.912 23.5452C177.226 23.9711 177.697 24.3568 177.697 24.3568C177.912 24.5279 178.083 24.3987 178.083 24.3987L178.043 24.1002L178.594 24.1858L178.043 24.8264C175.134 23.1594 172.998 23.3305 172.998 23.3305ZM174.324 16.1984L174.876 16.5405C174.836 16.8826 174.536 17.223 174.536 17.223C174.619 16.8826 174.324 16.1984 174.324 16.1984ZM176.969 16.5405C178.125 16.242 178.893 17.7781 178.893 17.7781L178.041 17.4377C177.695 17.0519 176.969 16.5405 176.969 16.5405ZM178.125 17.6925C178.38 18.0346 178.507 18.5897 178.507 18.5897C178.807 18.9318 179.663 19.445 179.663 19.445C179.448 18.0346 178.125 17.6925 178.125 17.6925ZM178.678 19.1029C180.174 19.658 179.705 21.2376 179.705 21.2376C179.49 20.6826 179.108 20.5115 179.108 20.5115C178.678 20.0856 178.678 19.1029 178.678 19.1029ZM178.937 20.7681C178.977 21.1102 178.851 21.7072 178.851 21.7072C179.062 22.0493 179.233 22.7318 179.233 22.7318C179.404 22.5607 179.619 21.5361 179.619 21.5361C179.49 21.0683 178.937 20.7681 178.937 20.7681ZM178.766 22.1348C178.676 22.6044 178.165 23.4579 178.165 23.4579L178.38 23.7145L178.635 23.8855C179.363 22.9465 178.766 22.1348 178.766 22.1348ZM187.564 36.0168L187.182 34.5645C186.881 34.0932 186.412 34.3934 186.412 34.3934C186.026 34.6902 185.556 34.5191 185.556 34.5191C185.045 34.4336 185.471 34.0932 185.471 34.0932C186.157 33.6673 186.838 33.4526 186.838 33.4526C187.353 33.6673 188.29 33.6237 188.29 33.6237C189.102 33.498 188.931 34.1787 188.931 34.1787C188.975 34.8193 188.76 35.9312 188.76 35.9312C188.248 35.9312 187.564 36.0168 187.564 36.0168ZM188.931 36.317L189.146 36.5282L188.505 37.6802L188.205 37.5091C188.631 37.1688 188.931 36.317 188.931 36.317ZM189.315 36.6137L188.803 37.7256C189.741 37.8966 190.427 37.2543 190.427 37.2543L190.298 36.5718C189.826 36.783 189.315 36.6137 189.315 36.6137ZM191.239 36.1424C191.45 36.1861 191.879 36.3571 191.879 36.3571C192.05 35.5908 191.665 34.6483 191.665 34.6483C192.391 34.9031 192.391 34.6046 192.391 34.6046C192.606 34.0077 191.879 33.8384 191.879 33.8384C190.638 33.4526 190.212 33.5381 190.212 33.5381C190.298 33.8785 190.256 34.0932 190.256 34.0932C190.296 34.1787 190.296 34.5191 190.296 34.5191C191.494 34.9502 191.239 36.1424 191.239 36.1424ZM167.317 22.9046V23.245L167.743 22.9465L167.317 23.9292L167.275 24.5279L167.958 23.0739L167.743 22.6899L167.317 22.9046ZM167.446 24.7408H167.617L168.513 24.0566L168.598 23.8855L168.81 24.3568H168.684L167.872 24.9974L167.998 25.3395L168.214 25.5525L167.914 25.6799L167.446 24.7408ZM168.214 26.6207L168.344 27.1322L168.555 27.003L168.899 26.8773L169.195 27.0885H169.621L169.11 26.7464L169.496 26.3205L169.325 25.8091L169.239 26.0203L168.855 26.5352L168.344 26.6626L168.214 26.6207ZM168.899 29.6527C168.684 29.6963 168.77 29.8237 168.77 29.8237C169.195 30.3788 169.452 29.9093 169.452 29.9093C169.581 29.6544 169.538 29.4834 169.538 29.4834L169.412 29.4432C169.412 29.9546 169.157 29.8255 169.157 29.8255C168.984 29.822 168.899 29.6527 168.899 29.6527ZM168.429 30.4626L168.344 31.0194L168.513 31.3196L168.598 30.8047L169.024 31.0194L168.81 31.4453L168.684 31.4889L168.984 31.66L169.281 30.974L169.41 30.8047H169.281L168.429 30.3788V30.4626ZM160.013 35.1615C159.927 35.5018 159.627 35.4617 159.627 35.4617L159.156 34.9066C158.856 34.4353 159.116 34.3096 159.116 34.3096L159.713 33.4544C159.844 33.5358 159.949 33.6542 160.013 33.7947L159.584 34.3498C159.458 34.65 159.669 34.7356 159.669 34.7356L160.013 35.1615Z" fill="black"/>
<path fill-rule="evenodd" clip-rule="evenodd" d="M160.61 33.367C160.781 34.0931 160.055 33.922 160.055 33.922C159.8 34.4335 160.184 34.4335 160.184 34.4335C160.781 34.4771 160.996 33.8784 160.996 33.8784C160.996 33.4979 160.61 33.367 160.61 33.367ZM173.252 21.5377L172.741 21.0682C172.741 21.0682 173.167 20.7261 173.081 20.3002C173.081 20.3002 173.382 20.2583 172.785 20.2583L172.57 20.3857C172.57 20.3857 172.355 20.3002 172.315 20.171L172.229 19.6596L172.615 19.19L172.956 19.2319C173.205 18.8916 173.853 18.3103 174.405 17.839L174.579 18.0363C174.365 18.5058 174.619 18.6332 174.619 18.6332C174.96 18.8479 175.091 18.4203 175.091 18.4203C175.431 18.5913 175.305 18.3784 175.305 18.3784C174.962 18.3016 174.579 17.8478 174.508 17.7553C174.948 17.3817 175.305 17.0972 175.305 17.0972C175.517 16.6277 175.861 16.413 175.861 16.413C175.646 16.1581 175.475 15.4739 175.475 15.4739C176.541 15.4739 176.713 16.584 176.713 16.584C180.003 19.19 177.954 23.2902 177.954 23.2902C176.969 22.4786 174.749 21.9654 174.749 21.9654C175.049 21.3684 175.772 20.9827 175.772 20.9827C177.184 21.0263 176.969 19.3175 176.969 19.3175C176.672 18.7188 176.758 19.6159 176.758 19.6159C176.157 21.5796 174.619 19.8306 174.619 19.8306C174.448 19.7015 174.619 20.1291 174.619 20.1291C174.705 20.3421 174.79 20.3002 174.79 20.3002L174.92 20.4276L173.853 20.8552C173.682 21.1118 173.382 21.5395 173.382 21.5395L173.252 21.5377ZM153.391 18.1637C151.599 18.3347 149.42 19.9144 149.42 19.9144C149.163 20.0855 149.121 20.0418 149.121 20.0418C148.694 20.8099 149.591 21.152 149.591 21.152C149.468 21.8541 149.589 22.577 149.933 23.2012C150.317 23.6725 150.403 24.8681 150.403 24.8681C150.701 24.6534 150.787 24.1839 150.787 24.1839C151.129 25.6344 152.239 25.9346 152.239 25.9346C152.383 25.9663 152.519 26.0283 152.637 26.1165C152.755 26.2047 152.852 26.317 152.924 26.4461C153.051 26.0202 153.009 25.5943 153.009 25.5943C153.137 26.1493 153.65 26.4461 153.65 26.4461C153.735 25.9346 153.906 25.4651 153.906 25.4651C154.29 24.6552 153.992 23.8435 153.992 23.8435C154.163 24.142 154.547 24.2276 154.547 24.2276C154.29 23.4595 154.547 22.8172 154.547 22.8172C154.676 22.0492 154.376 21.536 154.376 21.536L154.294 21.227C154.109 21.7647 154.203 22.6042 154.203 22.6042C153.99 22.5623 153.775 22.4768 153.775 22.4768C153.905 23.2448 153.391 24.2694 153.391 24.2694C153.093 24.739 153.049 25.0811 153.049 25.0811C152.665 24.5697 151.469 24.2276 151.469 24.2276C151.277 23.9869 151.106 23.7299 150.958 23.4595C150.787 23.758 150.616 23.6742 150.616 23.6742C150.488 23.2466 150.104 22.7334 150.104 22.7334C149.806 22.222 149.806 21.7088 149.806 21.7088C150.191 22.4349 150.319 22.606 150.319 22.606C150.617 22.7788 150.617 23.374 150.617 23.374C150.874 23.2466 150.916 22.9481 150.916 22.9481C151.515 23.9291 152.327 24.1019 152.327 24.1019C152.669 24.2729 152.967 24.5714 152.967 24.5714C153.009 23.8872 153.266 23.5904 153.266 23.5904C153.777 22.8207 153.479 21.8816 153.479 21.8816C153.534 22.0021 153.617 22.1077 153.721 22.1895C153.825 22.2712 153.947 22.3266 154.077 22.3511C153.992 21.9671 154.036 21.625 154.036 21.625C154.105 21.3492 154.137 20.96 154.151 20.6615L154.036 20.2147C153.779 19.6596 153.737 19.2756 153.737 19.2756C154.16 18.5041 153.391 18.1637 153.391 18.1637ZM151.64 21.9636C151.981 22.4332 152.452 22.6042 152.452 22.6042C152.707 22.0492 152.623 21.6233 152.623 21.6233C152.239 21.6652 152.068 21.5377 152.068 21.5377C151.939 22.0073 151.64 21.9636 151.64 21.9636ZM149.973 20.0855C150.572 20.2565 150.785 20 150.785 20C151.426 19.7434 151.511 20.4276 151.511 20.4276C151.511 20.7261 151.64 20.939 151.64 20.939C151.824 20.9582 152.15 20.8989 152.281 20.768C152.452 20.5533 152.196 20.3403 152.196 20.3403C152.11 20.0418 152.025 19.8708 152.025 19.8708C152.025 19.1866 152.496 19.2302 152.496 19.2302C152.794 19.2721 153.007 18.9736 153.007 18.9736C153.03 19.1418 152.997 19.3129 152.912 19.4599C152.827 19.6068 152.695 19.7213 152.538 19.7853C152.239 20 152.323 20.2565 152.323 20.2565C152.622 20.768 152.365 20.8116 152.365 20.8116C152.336 20.8816 152.291 20.9437 152.233 20.9928C152.175 21.042 152.107 21.0768 152.033 21.0944C152.168 21.4505 152.494 21.4103 152.494 21.4103C152.964 21.1555 152.964 20.6423 152.964 20.6423C153.177 21.2393 152.964 21.4103 152.964 21.4103C153.177 21.7943 152.835 21.9654 152.835 21.9654C152.835 22.6915 152.45 23.0336 152.45 23.0336C150.998 22.1801 150.956 21.1974 150.956 21.1974C151.426 22.009 151.895 21.625 151.895 21.625C151.988 21.5308 151.969 21.2585 151.951 21.1153C151.747 21.152 151.553 21.1136 151.553 21.1136C151.297 20.7715 151.34 20.5166 151.34 20.5166C151.125 20.0453 150.998 20.4311 150.998 20.4311C150.23 20.8954 149.973 20.0855 149.973 20.0855ZM140.106 34.7756C141.302 35.5017 145.703 35.5017 145.703 35.5017C149.931 35.5454 152.239 34.9501 152.239 34.9501C152.751 34.9501 153.606 34.5644 153.606 34.5644C153.777 34.5207 153.69 34.8646 153.69 34.8646C153.435 35.8456 153.648 36.8283 153.648 36.8283C153.648 37.5108 152.922 37.4689 152.922 37.4689C146.728 38.3207 141.774 37.8948 141.774 37.8948C140.321 37.6399 140.278 36.8684 140.278 36.8684C140.62 35.6745 140.15 34.9903 140.15 34.9903C139.977 34.8646 140.106 34.7756 140.106 34.7756ZM141.473 37.2978L141.603 37.1687V35.9311L141.517 35.7164C142.456 35.6763 142.755 36.0568 142.755 36.0568C143.395 37.1268 142.283 37.3834 142.283 37.3834C142.011 37.4362 141.729 37.4064 141.473 37.2978ZM143.608 35.8875L144.249 35.9311C144.078 36.0166 144.122 36.2715 144.122 36.2715L144.08 37.4235L144.251 37.6783L143.566 37.6382C143.738 37.509 143.738 37.4235 143.738 37.4235V36.1859C143.738 36.0166 143.608 35.8875 143.608 35.8875ZM142.028 35.9311L141.987 37.1285C142.456 37.1687 142.542 36.7847 142.542 36.7847C142.627 36.5735 142.456 36.2732 142.456 36.2732C142.285 35.9311 142.028 35.9311 142.028 35.9311ZM144.933 36.0166H146.171L146.213 36.3169C146.042 36.2278 145.829 36.2278 145.829 36.2278H145.572V36.6991H145.701L146 36.6136L145.958 36.9993L145.745 36.9557H145.574V37.4706H145.873C146.044 37.4706 146.171 37.3415 146.171 37.3415V37.6818L145.232 37.6417H144.975C144.933 37.5981 144.975 37.598 144.975 37.598C145.061 37.598 145.146 37.5125 145.146 37.5125V36.1894C145.104 36.1022 144.933 36.0166 144.933 36.0166ZM146.855 35.973L147.496 36.0166C147.456 36.082 147.428 36.1533 147.411 36.2278V37.0831C147.452 37.4235 147.709 37.3834 147.709 37.3834C148.008 37.3397 147.966 36.954 147.966 36.954V36.1022L147.88 36.0166H148.35C148.308 36.0568 148.308 36.1423 148.308 36.1423V37.0395C148.264 37.5946 147.667 37.6399 147.667 37.6399C147.026 37.5963 147.027 36.9993 147.027 36.9993V36.1441C146.982 36.0758 146.924 36.0175 146.855 35.973ZM149.973 35.8019L150.998 35.7164L151.125 36.0166C150.998 35.973 150.827 35.973 150.827 35.973H150.572V36.4024H150.827C150.869 36.3588 150.956 36.3169 150.956 36.3169L150.998 36.6991C150.912 36.6136 150.827 36.6136 150.827 36.6136H150.572V37.0849H150.871C150.956 37.0849 151.085 36.9557 151.085 36.9557V37.2559L150.102 37.3851L150.188 37.2996L150.146 35.9328C150.144 35.8456 149.973 35.8019 149.973 35.8019ZM151.812 35.6309L151.853 35.9712C151.939 35.8002 152.237 35.8002 152.237 35.8002L152.279 37.0377L152.194 37.1268L152.705 37.0377L152.62 36.9976L152.578 35.76C152.833 35.6745 152.962 35.8002 152.962 35.8002L152.92 35.4598L152.876 35.5L151.895 35.589H151.81L151.812 35.6309ZM154.287 34.2642C153.988 33.7091 154.201 33.3268 154.201 33.3268C154.458 32.5571 155.184 32.6408 155.184 32.6408C155.61 32.8957 155.57 32.5553 155.57 32.5553C155.996 31.9584 156.508 32.3005 156.508 32.3005C156.648 32.4745 156.844 32.5947 157.063 32.6408C157.363 33.0266 157.192 33.2378 157.192 33.2378C157.169 33.3726 157.2 33.5111 157.277 33.6236C157.663 33.7091 157.618 34.1385 157.618 34.1385C157.703 34.6063 157.403 35.376 157.403 35.376C157.148 35.5907 156.851 35.4162 156.851 35.4162C156.637 35.4598 156.722 35.5453 156.722 35.5453C156.937 35.8857 156.722 36.0568 156.722 36.0568C156.382 36.4425 155.91 36.4006 155.91 36.4006C155.228 36.4006 155.184 36.0568 155.184 36.0568C155.099 35.76 154.715 35.76 154.715 35.76C154.16 35.589 154.116 35.0339 154.116 35.0339C154.074 34.7337 154.287 34.6045 154.287 34.6045C154.502 34.4789 154.287 34.2642 154.287 34.2642ZM155.441 34.6499C155.612 35.2905 155.23 35.5471 155.23 35.5471C154.886 35.5907 154.844 35.3324 154.844 35.3324C154.844 35.0776 154.629 35.0357 154.629 35.0357C154.502 34.5207 154.758 34.5207 154.758 34.5207C155.186 34.3933 155.441 34.6499 155.441 34.6499ZM156.253 34.3933C156.338 34.8192 156.939 35.1596 156.939 35.1596C157.235 35.1596 157.11 34.7337 157.11 34.7337C156.939 34.519 157.024 34.3933 157.024 34.3933C157.45 34.3078 157.15 33.922 157.15 33.922C156.338 33.7091 156.253 34.3933 156.253 34.3933ZM155.656 33.7091C155.656 32.8974 155.141 32.9428 155.141 32.9428C154.886 32.983 154.886 33.2395 154.886 33.2395C154.971 33.6689 154.8 33.6689 154.8 33.6689C154.416 33.7545 154.673 34.1804 154.673 34.1804C154.8 34.3514 154.886 34.3095 154.886 34.3095C155.27 34.3095 155.57 34.0948 155.57 34.0948C155.781 34.053 155.656 33.7091 155.656 33.7091ZM156.212 32.8119C156.338 33.0667 156.553 33.0266 156.553 33.0266C157.024 33.0266 156.724 33.4979 156.724 33.4979C156.469 33.8383 156.127 33.8801 156.127 33.8801C155.656 33.3286 155.698 33.0283 155.698 33.0283C155.698 32.3424 156.212 32.8119 156.212 32.8119ZM155.912 34.8646C156.553 34.9501 156.509 35.6309 156.509 35.6309C156.338 35.9311 156.169 35.8019 156.169 35.8019C155.954 35.5907 155.828 35.7618 155.828 35.7618C155.828 36.144 155.528 35.8875 155.528 35.8875C155.355 34.9903 155.912 34.8646 155.912 34.8646Z" fill="black"/>
<path fill-rule="evenodd" clip-rule="evenodd" d="M156.508 36.5719C157.148 36.4008 157.148 35.8021 157.148 35.8021C157.2 35.7858 157.249 35.7629 157.295 35.734C157.763 36.0273 157.874 36.4025 157.874 36.4025C158.046 36.4881 158.304 36.914 158.304 36.914C158.26 36.3589 158.004 36.228 158.004 36.228C157.908 35.9587 157.751 35.715 157.546 35.5158C157.874 35.1074 157.874 34.479 157.874 34.479C158.346 34.3079 158.772 34.9049 158.772 34.9049C158.601 34.9904 158.431 34.9485 158.431 34.9485C159.117 35.2453 158.986 36.3153 158.986 36.3153C158.686 36.3153 158.561 36.1861 158.561 36.1861C159.072 36.7831 158.561 37.9386 158.561 37.9386C158.046 37.7239 157.96 37.1269 157.96 37.1269C158.046 37.5528 157.874 37.6785 157.874 37.6785C157.448 37.593 157.277 37.0379 157.277 37.0379C157.234 37.5528 156.977 37.3381 156.977 37.3381C156.851 37.2526 156.851 36.9524 156.851 36.9524C156.638 36.914 156.508 36.5719 156.508 36.5719ZM161.848 36.1023C161.671 36.0623 161.499 36.0062 161.333 35.9347C161.226 36.2245 160.943 36.9297 160.61 37.298C160.61 37.298 160.989 36.5369 161.211 35.8806C160.837 35.7065 160.492 35.4789 160.184 35.2051C160.14 35.8457 159.458 35.5019 159.458 35.5019C159.117 36.1425 159.755 36.317 159.755 36.317C160.27 36.2734 160.524 35.9731 160.524 35.9731C161.121 35.8475 160.696 36.317 160.696 36.317C160.481 36.5282 160.013 36.6137 160.013 36.6137C159.372 36.8284 159.713 37.3399 159.713 37.3399C160.053 37.8111 160.395 37.6401 160.395 37.6401C160.696 37.6802 160.696 37.8949 160.696 37.8949C160.91 38.4064 161.251 38.1096 161.251 38.1096C161.636 37.6802 161.422 37.2543 161.422 37.2543C161.207 36.6993 161.336 36.4881 161.336 36.4881C161.207 35.7183 161.551 36.2734 161.551 36.2734C161.636 36.4025 161.722 36.7447 161.722 36.7447C161.848 37.0414 161.893 36.8302 161.893 36.8302L161.848 36.1023ZM155.186 32.4263L155.441 31.9585C155.401 31.4436 154.886 31.1468 154.886 31.1468C154.8 31.3179 154.886 31.5291 154.886 31.5291C154.629 31.1469 153.861 30.8885 153.861 30.8885C153.775 31.1032 153.861 31.5291 153.861 31.5291C153.475 30.803 152.663 30.7628 152.663 30.7628C152.663 31.1032 152.835 31.3179 152.835 31.3179C152.45 31.0177 151.681 31.1032 151.681 31.1032C151.81 31.873 152.45 32.3844 152.45 32.3844L152.365 32.5991C151.895 32.2552 151.768 32.5136 151.768 32.5136C151.726 32.5537 151.768 32.6393 151.768 32.6393C152.023 33.0652 152.964 33.4509 152.964 33.4509C152.707 33.5364 152.622 33.7511 152.622 33.7511C152.964 34.4336 153.988 34.3917 153.988 34.3917C153.855 33.9262 153.864 33.4312 154.015 32.9709C153.906 32.9028 153.327 32.5345 153.135 32.3408C153.135 32.3408 152.964 32.1296 152.623 31.8293L152.025 31.3581C152.025 31.3581 152.496 31.5291 152.836 31.7874C152.836 31.7874 153.603 32.4385 154.156 32.7248C154.582 32.3146 155.186 32.4263 155.186 32.4263ZM172.615 34.6501C172.87 35.7166 172.697 37.1287 172.697 37.1287C177.484 38.9632 185.684 37.8513 185.684 37.8513C187.051 37.6802 187.096 37.469 187.096 37.469C187.608 37.4254 187.522 36.6574 187.522 36.6574C187.222 36.2716 187.051 34.7338 187.051 34.7338C185.939 35.3744 179.663 35.5455 179.663 35.5455C174.579 35.6764 172.615 34.6501 172.615 34.6501ZM173.212 35.2907L173.684 35.3762L173.939 36.317L174.45 35.5909L174.876 35.631L174.836 35.7602V37.1269L174.921 37.298L174.324 37.2124L174.41 37.0833V36.3572L173.855 37.0833L173.469 36.1861V36.9977L173.129 36.8267L173.169 36.7412L173.212 35.5001V35.2907ZM175.477 35.9312C174.75 36.6137 175.477 37.3835 175.477 37.3835C175.903 37.7658 176.458 37.3835 176.458 37.3835C177.098 36.4863 176.414 35.9312 176.414 35.9312C175.773 35.5909 175.477 35.9312 175.477 35.9312ZM175.946 35.9731C175.22 36.317 175.731 37.085 175.731 37.085C175.903 37.4708 176.157 37.1705 176.157 37.1705C176.501 36.8302 176.243 36.2734 176.243 36.2734C176.157 35.8876 175.946 35.9731 175.946 35.9731ZM177.055 35.8876H177.399L177.954 36.6574L177.91 36.0569L177.866 35.9312L178.422 35.9714L178.336 36.1006V37.5528L178.38 37.6785H178.079L177.482 36.7813V37.3818L177.523 37.5528L177.097 37.5092L177.137 37.298L177.18 36.0569L177.055 35.8876ZM179.748 35.9731H180.345C180.986 35.9731 181.115 36.8284 181.115 36.8284C181.115 37.7658 180.214 37.7256 180.214 37.7256L179.747 37.682L179.918 37.5563L179.874 36.1041L179.748 35.9731ZM180.26 36.1878V37.5546C180.815 37.3399 180.686 36.6993 180.686 36.6993C180.56 36.1878 180.26 36.1878 180.26 36.1878ZM181.412 35.9731L181.667 35.933C182.011 35.7619 182.437 35.8894 182.437 35.8894C182.863 36.3607 182.393 36.7866 182.393 36.7866L182.779 37.387C182.85 37.4051 182.911 37.4502 182.95 37.5127C182.739 37.5982 182.61 37.5127 182.61 37.5127C182.224 37.2578 182.138 36.9157 182.138 36.9157H181.927V37.5563L181.967 37.682H181.541L181.581 37.5563L181.541 36.0604L181.412 35.9731ZM181.927 36.7429V36.0569C182.098 35.8859 182.224 36.1006 182.224 36.1006C182.439 36.4409 182.224 36.6556 182.224 36.6556C182.138 36.7831 181.927 36.7429 181.927 36.7429ZM183.805 35.6764C184.617 35.6328 184.617 36.6993 184.617 36.6993C184.532 37.5546 183.762 37.5546 183.762 37.5546C183.036 37.469 182.995 36.5736 182.995 36.5736C183.121 35.5909 183.805 35.6764 183.805 35.6764ZM183.805 35.9312C184.231 35.9714 184.191 36.6137 184.191 36.6137C184.231 37.2142 183.805 37.3399 183.805 37.3399C183.591 37.3835 183.505 37.085 183.505 37.085C183.25 36.2734 183.591 36.0185 183.591 36.0185C183.636 35.9313 183.805 35.9312 183.805 35.9312ZM184.872 35.631L185.469 35.5909L185.384 35.7619L185.427 37.2543L185.513 37.3399L185.001 37.3835L185.041 37.298L185.001 35.7602L184.872 35.631ZM185.899 35.5019L185.939 35.9312L186.068 35.8021L186.283 35.7619V37.1287L186.239 37.2543L186.665 37.1688L186.625 37.0396V35.631H186.922L186.881 35.2907L186.796 35.3308L186.026 35.5019H185.899ZM168.429 33.5836C168.44 33.6918 168.457 33.7948 168.48 33.8908C168.498 33.8792 168.518 33.8687 168.537 33.8594C168.673 33.4806 168.598 33.327 168.598 33.327L168.724 33.2379C168.782 33.3846 168.724 33.6464 168.68 33.8C168.796 33.7635 168.918 33.751 169.038 33.7633C169.094 33.5648 169.118 33.3586 169.11 33.1524L168.495 33.0774C168.358 33.3025 168.429 33.5836 168.429 33.5836ZM168.534 34.0845C168.64 34.4127 168.806 34.664 168.991 34.8578C169.188 34.7077 169.145 34.1316 169.12 33.9169C168.911 33.8942 168.7 33.9544 168.534 34.0845ZM169.087 34.9538C169.288 35.1371 169.496 35.261 169.667 35.3395C169.755 35.1191 169.787 34.8807 169.763 34.6448C169.52 34.6448 169.265 34.7269 169.159 34.76C169.134 34.8508 169.103 34.9154 169.087 34.9538ZM169.806 35.3971C169.929 35.4443 170.007 35.4617 170.007 35.4617C170.157 35.4827 170.28 35.4792 170.386 35.4617L170.355 35.0725C170.218 35.0655 169.979 35.1842 169.864 35.2505L169.806 35.3971ZM170.522 35.4268C170.629 35.3875 170.724 35.3204 170.796 35.2323C170.869 35.1443 170.916 35.0385 170.934 34.9258C170.805 34.8775 170.665 34.8654 170.529 34.8909L170.522 35.4268ZM170.948 34.7548C170.934 34.1753 170.747 33.7738 170.494 33.4858C170.526 33.594 170.634 34.0007 170.566 34.2556L170.777 34.177L170.817 34.3062L170.52 34.3429C170.538 34.4823 170.534 34.6234 170.51 34.7618C170.733 34.6902 170.88 34.7251 170.948 34.7548ZM170.386 33.3741C170.225 33.2283 170.042 33.1097 169.843 33.0233C169.878 33.0739 169.983 33.2659 169.969 33.5487C170.09 33.455 170.234 33.3949 170.386 33.3741ZM169.595 32.929C169.397 32.8647 169.192 32.826 168.984 32.8138C168.835 32.824 168.692 32.8828 168.579 32.9814L169.206 33.025L169.595 32.929ZM169.227 33.1734C169.258 33.3375 169.291 33.4876 169.234 33.6342C169.555 33.512 169.763 33.5731 169.841 33.6062C169.849 33.4218 169.805 33.2388 169.716 33.0774L169.227 33.1734ZM170.004 33.7564C170.061 33.9492 170.052 34.1555 169.979 34.3429C170.215 34.2346 170.362 34.2434 170.44 34.2678C170.473 34.0456 170.442 33.8187 170.351 33.6132C170.221 33.615 170.097 33.6662 170.004 33.7564ZM169.922 34.5209C169.967 34.7144 169.962 34.9163 169.908 35.1074C170.129 34.8682 170.33 34.8613 170.381 34.8613C170.442 34.7757 170.449 34.4999 170.442 34.4284C170.265 34.43 170.089 34.4612 169.922 34.5209ZM169.857 33.8314C169.643 33.7682 169.413 33.7837 169.209 33.8751C169.246 34.1648 169.234 34.4039 169.199 34.5837C169.388 34.4846 169.602 34.4445 169.813 34.4685C169.887 34.2644 169.902 34.0437 169.857 33.8314ZM159.287 20.8955L158.561 18.5897L158.943 17.5651L159.372 19.2303L158.986 19.0593C159.287 20.3824 160.353 19.6999 160.353 19.6999C160.825 19.1885 160.394 19.0174 160.394 19.0174C159.842 18.7172 159.753 19.0593 159.753 19.0593C159.371 17.607 160.353 18.1621 160.353 18.1621C160.31 17.2213 160.694 17.1375 160.694 17.1375C161.205 17.3086 161.205 18.1202 161.205 18.1202C161.76 17.223 162.106 18.1621 162.106 18.1621C162.146 18.2913 162.062 18.5461 162.062 18.5461C161.38 18.2913 161.296 19.0174 161.296 19.0174C161.207 19.4869 162.062 19.6143 162.062 19.6143C163.089 19.3159 163.089 18.204 163.089 18.204C162.789 18.2476 162.277 18.7154 162.277 18.7154V16.7936C162.532 17.2632 163.174 17.5198 163.174 17.5198C163.045 16.6662 162.574 16.1967 162.574 16.1967L164.37 16.1548C163.77 16.7099 163.815 17.5215 163.815 17.5215C164.327 17.4377 164.582 16.9245 164.582 16.9245L164.625 18.5897C164.239 17.9928 163.855 18.2494 163.855 18.2494C163.684 19.5288 164.796 19.5725 164.796 19.5725C165.563 19.5725 165.608 18.9319 165.608 18.9319C165.437 18.1638 164.922 18.5897 164.922 18.5897C164.711 17.3086 165.648 17.8636 165.648 17.8636C165.308 17.0101 165.903 16.7098 165.903 16.7098C166.633 17.1375 166.289 17.8636 166.289 17.8636C167.273 17.3522 167.101 18.5897 167.101 18.5897C166.163 18.1621 166.289 19.1448 166.289 19.1448C166.718 20.1694 167.57 19.3997 167.57 19.3997C167.741 19.1448 167.785 18.8882 167.785 18.8882L167.399 18.9738L167.785 17.6507L168.125 18.3349L168.38 17.6088L168.595 17.8636L167.354 20.9811C163.6 20.1275 159.287 20.8955 159.287 20.8955ZM165.65 20.2986C165.439 20.2567 165.224 20.1694 165.268 20.0839C165.268 19.9565 165.439 19.9128 165.694 19.9565C165.905 19.9984 166.119 20.0839 166.079 20.1694C166.079 20.2986 165.905 20.3405 165.65 20.2986ZM161.036 20.3405C161.251 20.2986 161.422 20.2131 161.422 20.0856C161.422 20.0001 161.207 19.9582 160.996 20.0001C160.741 20.0001 160.57 20.1275 160.57 20.2131C160.57 20.2986 160.781 20.3841 161.036 20.3405ZM163.386 19.4869L163.986 20.0001L163.386 20.3841L162.834 20.0001L163.386 19.4869ZM171.418 26.1914C171.458 25.5944 171.8 24.9119 171.8 24.9119L171.303 24.3778L171.131 24.685C171.224 24.7723 171.289 24.8997 171.289 25.0394C171.289 25.2331 171.166 25.4042 171.013 25.4757L170.973 25.6573L171.418 26.1914ZM171.166 24.2329L169.922 22.9046C169.07 21.6653 168.469 22.264 168.469 22.264L167.872 22.4787C168.344 22.7772 168.598 23.2904 168.598 23.2904C169.11 23.2048 169.154 23.4614 169.154 23.4614L170.477 25.062V25.0411C170.477 24.7845 170.648 24.5716 170.863 24.5716C170.91 24.5716 170.962 24.582 171.006 24.603L171.166 24.2329Z" fill="black"/>
<path fill-rule="evenodd" clip-rule="evenodd" d="M169.41 24.0567C169.11 23.7164 168.899 23.4598 168.77 23.5872C168.77 23.5872 169.155 24.3133 169.452 25.2088C169.667 25.8494 169.838 26.5755 169.796 27.258L170.433 27.3016L170.601 27.3226L170.543 26.9944C170.36 26.9577 170.222 26.7623 170.222 26.5336C170.222 26.2334 170.393 26.0187 170.608 26.0187C170.618 26.0187 170.632 26.0187 170.643 26.0222L170.721 25.6539C170.615 25.5282 170.506 25.392 170.393 25.2524C170.222 25.0377 170.007 24.823 169.838 24.61C169.71 24.3988 169.536 24.2278 169.41 24.0567ZM170.774 27.3435L171.46 27.4325C171.46 27.4325 171.245 27.0887 171.374 26.4481L170.92 25.9035L170.87 26.1356C170.923 26.188 170.965 26.2505 170.993 26.3195C171.021 26.3885 171.035 26.4626 171.034 26.5371C171.033 26.631 171.005 26.7225 170.953 26.8006C170.9 26.8788 170.827 26.94 170.74 26.9769L170.774 27.3435Z" fill="black"/>
<path fill-rule="evenodd" clip-rule="evenodd" d="M166.376 32.8121C166.676 33.238 167.574 33.1123 167.574 33.1123C167.703 33.0268 167.659 32.5154 167.659 32.5154C167.574 32.2151 167.619 32.0441 167.619 32.0441C167.83 32.0842 167.874 32.3408 167.874 32.3408C167.874 32.4263 167.745 32.8557 167.745 32.8557C168.686 32.2553 167.874 31.1033 167.874 31.1033C168.089 29.9059 168.385 29.6109 168.385 29.6109C169.367 28.7556 169.882 29.0558 169.882 29.0558C170.733 29.0558 172.146 29.5271 172.146 29.5271C172.697 29.6981 174.665 30.0385 174.665 30.0385C174.688 29.9111 174.748 29.7929 174.836 29.6981C175.391 29.3124 175.773 27.4761 175.773 27.4761C175.773 27.1794 175.903 27.3051 175.903 27.3051C175.988 27.6454 175.946 27.7764 175.946 27.7764C176.032 28.4169 175.517 29.569 175.517 29.569C176.543 30.1659 178.296 30.0403 178.296 30.0403C179.534 30.0403 180.515 29.3997 180.515 29.3997C181.667 28.8882 183.119 29.0139 183.119 29.0139L183.079 28.7591C182.013 28.2878 182.739 27.7327 182.739 27.7327L182.309 27.1358C181.157 27.0502 177.57 25.1721 177.57 25.1721C174.494 23.4632 172.872 23.7617 172.872 23.7617C171.545 25.1721 171.76 27.5215 171.76 27.5215L172.526 27.607C172.486 25.9837 173.467 25.1284 173.467 25.1284C173.768 25.001 173.553 25.3431 173.553 25.3431C172.486 26.9211 172.912 28.0329 172.912 28.0329C172.441 27.8182 169.621 27.6926 169.621 27.6926C169.392 27.6312 169.152 27.6183 168.917 27.6547C168.683 27.691 168.458 27.7759 168.258 27.9038C167.743 28.3332 167.532 29.0157 167.532 29.0157L166.977 30.9392C166.42 32.1296 166.376 32.8121 166.376 32.8121ZM178.296 27.8148C178.125 28.7119 177.57 29.6964 177.57 29.6964C177.655 29.9931 177.996 29.5253 177.996 29.5253C178.381 28.8394 178.507 27.8985 178.507 27.8985C178.422 27.1776 178.296 27.8148 178.296 27.8148ZM176.884 27.2178C176.672 28.5409 176.032 29.3962 176.032 29.3962C175.903 29.7365 176.287 29.4817 176.287 29.4817C176.842 28.7119 177.013 27.3033 177.013 27.3033C176.969 26.9176 176.884 27.2178 176.884 27.2178ZM177.57 27.6035C177.526 28.5007 176.758 29.4817 176.758 29.4817C176.587 29.7819 176.969 29.6109 176.969 29.6109C177.655 29.0104 177.781 27.5582 177.781 27.5582C177.695 27.0886 177.57 27.6035 177.57 27.6035ZM182.267 29.3525C182.57 29.2485 182.893 29.2215 183.208 29.274L183.301 29.7313C183.206 29.7807 183.127 29.8559 183.072 29.9482C183.018 30.0404 182.991 30.1462 182.994 30.2532C182.994 30.5499 183.205 30.8048 183.465 30.8048H183.505V31.4698C183.046 31.6168 182.574 31.7243 182.096 31.791C181.37 31.9621 181.882 32.3879 181.882 32.3879C182.267 32.7283 182.353 33.0286 182.353 33.0286C182.693 33.4143 182.138 33.711 182.138 33.711C180.986 33.9257 179.703 35.0778 179.703 35.0778C178.806 35.1633 177.484 35.0376 177.484 35.0376C177.14 34.7793 176.884 34.1823 176.884 34.1823C177.355 33.7564 177.781 34.2679 177.781 34.2679C178.167 34.4826 178.893 34.397 178.893 34.397C179.534 34.0566 180.475 33.6272 180.475 33.6272C180.646 33.5016 180.901 33.5417 180.901 33.5417C181.155 33.4562 180.857 33.2415 180.857 33.2415C180.427 32.9394 180.039 32.5807 179.705 32.175C179.364 31.6199 179.705 31.3633 179.705 31.3633C180.216 30.7629 182.267 29.3525 182.267 29.3525ZM183.472 29.3525C183.75 29.4623 183.986 29.6564 184.148 29.9076C184.402 30.4627 184.319 30.5936 184.319 30.5936C184.233 30.7646 184.319 31.105 184.319 31.105C184.129 31.2206 183.93 31.3176 183.722 31.3948V30.7123C183.789 30.6558 183.842 30.5852 183.879 30.5056C183.915 30.4259 183.934 30.3391 183.933 30.2515C183.933 29.9652 183.739 29.7156 183.496 29.6964L183.472 29.3525Z" fill="black"/>
<path fill-rule="evenodd" clip-rule="evenodd" d="M192.817 28.0294C193.032 27.1322 192.861 26.1512 192.861 26.1512C192.56 25.5106 192.26 25.3815 192.26 25.3815C192.26 23.547 191.151 23.2904 191.151 23.2904C191.151 23.6325 191.363 24.102 191.363 24.102C191.448 24.2731 191.151 24.0584 191.151 24.0584C191.108 23.4614 190.551 23.1612 190.551 23.1612C190.125 22.9064 189.91 22.6061 189.91 22.6061C189.439 23.3742 190.68 24.1876 190.68 24.1876C188.756 24.102 185.425 24.7845 185.425 24.7845C183.076 25.3413 181.751 24.5297 181.751 24.5297C180.387 23.8891 180.899 22.6498 180.899 22.6498C181.54 21.3686 182.948 21.496 182.948 21.496C183.645 21.5157 184.336 21.6308 185.001 21.8381C187.051 22.3932 189.229 21.7526 189.229 21.7526C190.296 21.2411 190.638 20.1729 190.638 20.1729C189.998 20.6442 189.1 20.5569 189.1 20.5569C188.549 21.0701 186.75 21.1556 186.75 21.1556C187.948 20.6861 187.906 20.2148 187.906 20.2148C187.992 19.9163 188.458 19.5306 188.458 19.5306C187.732 19.6597 186.88 20.3422 186.88 20.3422C186.368 20.728 185.041 20.728 185.041 20.728C184.83 20.8135 184.444 20.6861 184.444 20.6861C185.296 20.4295 185.342 20.0874 185.342 20.0874C183.334 19.5323 181.581 20.7716 181.581 20.7716C179.872 22.182 180.387 23.5906 180.387 23.5906C180.684 24.9573 183.118 25.3832 183.118 25.3832C185.382 25.5124 188.076 25.1284 188.076 25.1284C190.125 24.8735 190.68 25.172 190.68 25.172C190.935 25.3431 190.68 25.3832 190.68 25.3832C189.439 25.2122 189.057 26.6644 189.057 26.6644C189.909 25.7253 191.064 25.9819 191.064 25.9819C191.275 26.0221 191.064 26.0674 191.064 26.0674C190.464 25.9819 190.038 26.3677 190.038 26.3677C190.849 26.8791 191.446 26.6644 191.446 26.6644C191.79 26.5789 191.961 26.2385 191.961 26.2385C192.473 27.0048 192.433 27.6052 192.216 28.0311C191.916 28.5426 191.361 28.7573 191.361 28.7573C190.123 29.0575 188.371 28.4169 188.371 28.4169C187.859 28.162 186.962 28.2022 186.962 28.2022C186.833 28.1621 186.621 28.0765 186.45 28.0311C185.169 27.6454 182.775 27.305 182.775 27.305L182.99 27.6052C183.331 27.6908 183.502 27.8601 183.545 28.0311C183.586 28.2022 183.502 28.3715 183.502 28.3715C183.416 28.5862 183.287 28.7119 183.287 28.7119L183.462 29.0557C184.828 29.4816 184.57 30.6791 184.57 30.6791C184.699 31.7456 185.34 32.1714 185.34 32.1714C186.792 33.4526 188.287 33.2379 188.287 33.2379C188.802 33.2379 188.887 33.3671 188.887 33.3671C189.399 33.6673 189.313 35.0341 189.313 35.0341C189.313 35.5891 189.058 36.1861 189.058 36.1861C189.229 36.612 190.081 36.4008 190.081 36.4008C190.211 36.3572 190.256 36.1861 190.256 36.1861C190.341 35.9313 190.127 35.6747 190.127 35.6747C190.041 35.5455 190.127 35.5891 190.127 35.5891C190.682 35.844 190.638 36.4863 190.638 36.4863C191.494 35.4163 190.298 34.6902 190.298 34.6902C190.127 34.6501 189.998 34.6047 189.998 34.6047C189.872 34.0531 189.826 32.9412 189.826 32.9412V32.641L189.401 32.1697C188.203 32.4699 187.351 32.044 187.351 32.044C187.391 31.7892 187.391 31.489 187.391 31.489C187.477 30.7192 187.22 28.8393 187.22 28.8393C187.561 29.0104 189.528 29.3507 189.528 29.3507C189.996 29.5654 190.937 29.5253 190.937 29.5253C192.049 29.7801 191.707 30.5481 191.707 30.5481C192.604 29.822 191.832 29.3106 191.832 29.3106C192.436 29.0959 192.691 28.5844 192.817 28.0294ZM133.145 28.4553C132.761 27.5581 133.358 26.4061 133.358 26.4061C134.468 24.6553 136.006 24.2277 136.006 24.2277C136.818 22.9901 138.057 22.9901 138.057 22.9901C137.886 23.3323 137.586 23.6307 137.586 23.6307C138.354 23.4597 139.038 22.8191 139.038 22.8191C139.038 23.8018 138.141 24.1858 138.141 24.1858C141.43 24.6135 145.915 24.1003 145.915 24.1003C147.753 23.8018 147.666 22.093 147.666 22.093C147.281 20.5552 145.359 21.4524 145.359 21.4524C141.301 23.8018 139.337 20.6843 139.337 20.6843C140.32 21.0683 142.242 21.0683 142.242 21.0683C141.515 20.7699 140.576 19.7016 140.576 19.7016C141.175 19.7872 141.473 20.0437 141.473 20.0437C142.498 20.5988 143.652 20.4714 143.652 20.4714C143.31 20.0874 142.755 19.4468 142.755 19.4468C143.439 19.7453 144.122 19.7453 144.122 19.7453C144.549 19.7872 144.89 19.8308 144.89 19.8308C145.616 19.9582 146 19.8308 146 19.8308C148.179 20.0437 148.435 22.0511 148.435 22.0511C148.648 24.6135 145.702 24.8264 145.702 24.8264C144.504 25.1703 137.884 25.083 137.884 25.083C138.569 25.3815 138.74 26.0221 138.74 26.0221C138.867 26.3223 139.038 26.537 139.038 26.537C138.354 26.5771 137.671 25.6817 137.671 25.6817C137.886 26.1076 138.441 26.7482 138.441 26.7482C138.057 26.9193 137.245 25.9365 137.245 25.9365C135.964 24.87 134.854 25.9802 134.854 25.9802C133.656 26.9175 133.871 27.7292 133.871 27.7292C133.867 27.8644 133.891 27.999 133.942 28.1241C133.994 28.2493 134.071 28.3621 134.169 28.4553C134.597 28.9702 135.365 28.8847 135.365 28.8847C136.177 28.8847 136.989 28.67 137.671 28.4553C138.129 28.3306 138.573 28.1593 138.996 27.9439C139.125 27.944 139.254 27.9586 139.38 27.9875C139.764 27.7292 140.321 27.7728 140.321 27.7728C142.2 27.6017 147.582 25.6346 147.582 25.6346C148.31 25.2942 149.633 23.9275 149.633 23.9275C150.103 24.2259 150.401 25.3378 150.401 25.3378C150.538 25.2436 150.643 25.1087 150.7 24.9521C150.956 25.8911 152.238 26.4043 152.238 26.4043C152.622 26.4445 152.922 26.8302 152.922 26.8302L153.049 26.4445C153.22 26.7028 154.502 27.6 155.827 28.4518C156.726 29.0679 157.638 29.6667 158.561 30.2479C159.713 28.9667 160.524 29.733 160.524 29.733C160.353 29.9041 160.139 29.8622 160.139 29.8622C159.542 29.8185 159.158 30.1589 159.158 30.1589C160.57 29.9477 160.825 30.4172 160.825 30.4172C161.122 31.0997 160.139 31.4401 160.139 31.4401C160.139 30.5028 159.241 30.5429 159.241 30.5429C159.424 30.6365 159.58 30.7762 159.692 30.9483C159.804 31.1203 159.87 31.3187 159.882 31.5239C159.582 32.3355 158.856 31.6984 158.856 31.6984C158.601 31.5693 158.215 31.2271 158.215 31.2271C156.125 31.098 154.116 29.6457 154.116 29.6457L153.048 30.117C152.466 29.6777 151.997 29.1063 151.681 28.4501C151.553 28.2389 151.468 28.0678 151.468 28.0678V28.4501C151.597 29.0505 151.979 29.5619 151.979 29.5619C150.143 31.6548 146.854 29.7766 146.854 29.7766C146.47 29.6475 145.272 29.0069 145.272 29.0069C141.856 28.9667 140.274 32.0405 140.274 32.0405L140.017 32.4664C139.763 34.39 139.164 34.39 139.164 34.39C139.462 33.6639 138.738 33.3235 138.738 33.3235C138.225 33.409 137.029 33.3636 137.029 33.3636C136.261 34.7303 136.9 35.7131 136.9 35.7131C138.394 35.6729 137.753 36.8651 137.753 36.8651C137.626 37.2508 137.284 37.2508 137.284 37.2508C137.326 36.0133 136.173 36.0988 136.173 36.0988C137.155 36.4846 136.942 37.0798 136.942 37.0798C136.687 37.0362 136.43 37.4655 136.43 37.4655C134.978 36.5684 135.192 34.8613 135.192 34.8613C135.363 31.9131 136.004 31.3563 136.004 31.3563C136.219 31.2708 136.303 31.3999 136.303 31.3999C136.943 31.7002 137.797 31.4401 137.797 31.4401C138.139 31.3546 138.225 30.6738 138.225 30.6738C138.439 29.4764 139.249 28.5356 139.249 28.5356C138.694 28.7939 135.576 29.6056 135.576 29.6056C134.124 29.9459 133.74 31.1835 133.74 31.1835C132.801 30.0315 134.295 29.3909 134.295 29.3909C133.656 29.2251 133.272 28.8847 133.145 28.4553ZM149.846 27.4743C150.232 28.2441 151.384 29.2268 151.384 29.2268C151.511 29.3525 151.726 29.4816 151.726 29.4816C151.641 29.5672 151.428 29.5672 151.428 29.5672C150.445 29.0121 149.804 27.8583 149.804 27.8583C149.589 27.4324 149.846 27.4743 149.846 27.4743ZM148.435 28.3698C149.032 29.0959 149.247 29.2669 149.247 29.2669C149.675 29.7819 150.23 30.0367 150.23 30.0367C149.12 30.0367 148.435 28.7991 148.435 28.7991C148.264 28.4553 148.308 28.3279 148.308 28.3279L148.435 28.3698ZM149.162 27.8147C149.46 28.67 150.741 29.5253 150.741 29.5253C151.04 29.6108 150.956 29.822 150.956 29.822C150.7 29.8656 150.614 29.7365 150.614 29.7365C149.462 29.3507 149.078 28.073 149.078 28.073C148.863 27.6035 149.162 27.8147 149.162 27.8147Z" fill="black"/>
</svg>
