<svg width="217" height="40" viewBox="0 0 217 40" fill="none" xmlns="http://www.w3.org/2000/svg">
<path d="M215.633 35.031C214.157 37.4188 211.92 38.7502 209.263 39.2692C203.891 40.3178 198.858 39.3419 194.207 36.4144C193.71 36.1003 193.589 35.8071 193.805 35.2283C194.485 33.409 195.099 31.5663 195.774 29.6197C197.742 31.3015 199.891 32.3397 202.267 32.9132C204.164 33.37 206.071 33.4453 207.965 32.9729C208.557 32.825 209.171 32.5447 209.64 32.158C210.511 31.4365 210.358 30.2997 209.307 29.9026C208.245 29.5004 207.117 29.2434 205.999 29.0358C203.28 28.5349 200.603 27.9717 198.09 26.7285C193.65 24.5277 193.055 17.9225 197.186 14.7796C199.147 13.2847 201.363 12.4905 203.777 12.2413C207.766 11.8235 211.534 12.6825 215.154 14.3436C215.602 14.5486 215.718 14.7432 215.556 15.2364C214.966 17.0349 214.43 18.8517 213.855 20.7203C212.685 20.0429 211.479 19.5368 210.24 19.1917C209.987 19.1216 208.848 18.8127 207.158 18.6674C203.563 18.3612 201.448 19.1449 201.226 19.6692C201.139 19.8742 201.133 20.0948 201.133 20.0948C201.131 20.1493 201.126 20.5023 201.345 20.8112C201.499 21.0292 201.729 21.1823 201.997 21.2576C203.342 21.6365 204.697 21.992 206.068 22.2438C208.233 22.6409 210.387 23.0561 212.397 23.9956C216.862 26.0823 218.249 30.8084 215.633 35.031Z" fill="black"/>
<path d="M159.634 13.1341C159.605 13.0822 159.562 13.0407 159.51 13.0122C159.461 12.9836 159.404 12.968 159.345 12.968H153.315C153.256 12.968 153.199 12.9836 153.153 13.0122C153.053 13.0693 152.983 13.1783 152.983 13.3054V15.566L152.957 15.5426C152.318 14.9872 151.831 14.5071 151.287 14.1048C147.597 11.3771 142.199 11.4394 138.146 14.3436C134.064 17.2685 132.142 21.351 132.301 26.347C132.469 31.6104 134.806 35.6825 139.434 38.2493C143.4 40.4475 148.814 40.2788 152.285 36.8789C152.473 36.6947 152.671 36.5156 152.983 36.2223V38.5503C152.983 38.6671 153.04 38.7684 153.127 38.828C153.181 38.867 153.246 38.8877 153.315 38.8877H159.345C159.415 38.8877 159.482 38.867 159.536 38.828C159.574 38.7995 159.608 38.7632 159.634 38.7216C159.662 38.6723 159.68 38.6126 159.68 38.5503V13.3054C159.68 13.2431 159.662 13.1835 159.634 13.1341ZM145.946 32.9833C142.086 32.9574 138.986 29.7962 138.986 25.8851C138.986 21.9739 142.106 18.8543 145.987 18.8569C149.839 18.8595 152.957 22.0232 152.957 25.9292C152.955 29.804 149.77 33.0093 145.946 32.9833Z" fill="black"/>
<path d="M22.2122 20.165C22.1142 20.1312 22.0163 20.0923 21.8437 20.0274C22.3513 19.6641 22.7971 19.376 23.2094 19.0438C26.3222 16.5523 27.0308 10.4454 23.4439 6.9469C23.2249 6.73409 22.9904 6.53165 22.743 6.33959C22.493 6.14754 22.225 5.96586 21.9442 5.79976C21.6607 5.63106 21.3618 5.47534 21.0449 5.3326C18.4268 4.15431 15.6516 3.8299 12.8377 3.79616C9.02144 3.75204 5.20517 3.78058 1.3889 3.78837H0.319525C0.237067 3.78837 0.159763 3.81951 0.100496 3.86883C0.0541132 3.91035 0.0180377 3.96745 0 4.02974V37.0607C0.1778 36.9413 0.353024 36.8219 0.528248 36.6973C2.34748 35.4048 3.91934 33.8606 5.14075 31.9738C5.64838 31.19 6.03491 30.3439 6.41112 29.4927C7.31816 27.4371 8.66841 25.7528 10.565 24.5381C10.9721 24.2786 11.3921 24.0528 11.8276 23.8737C12.4331 23.622 13.0696 23.4507 13.7396 23.3832C15.2754 23.2275 16.6488 23.6402 17.8419 24.6368C18.4912 25.1792 19.0014 25.841 19.4344 26.5625C19.5142 26.6949 19.6096 26.7805 19.759 26.822C20.447 27.0089 21.1351 27.1984 21.8179 27.3982C22.4441 27.5825 23.0625 27.7823 23.6861 27.977C23.717 27.9848 23.7454 28.0003 23.8021 28.0263C23.4774 28.2547 23.1759 28.4701 22.8693 28.6777C22.7507 28.7582 22.6296 28.8412 22.5111 28.9191C21.9854 29.2772 21.4623 29.6328 20.9341 29.9858C20.8542 30.0403 20.8336 30.087 20.8568 30.1856C20.9908 30.7514 21.099 31.3224 21.1892 31.8959C21.2484 32.2852 21.3025 32.6745 21.3515 33.0664C21.4417 33.8035 21.4803 34.5406 21.4726 35.2777C21.4726 35.4178 21.4726 35.558 21.4675 35.7007C21.4468 36.43 21.3773 37.1515 21.2536 37.86C21.5164 37.7484 21.7741 37.6239 22.0266 37.4837C22.14 37.424 22.2508 37.3617 22.359 37.2994C22.3719 37.2943 22.3848 37.2891 22.3951 37.2787C22.609 37.1541 22.8177 37.0217 23.0239 36.879C23.1063 36.8245 23.1862 36.7674 23.2661 36.7077C23.3176 36.6714 23.3692 36.635 23.4207 36.5935C23.4722 36.5546 23.5263 36.5157 23.5779 36.4715C23.65 36.4196 23.7222 36.3625 23.7918 36.3002C23.8433 36.2587 23.8948 36.2172 23.9464 36.1705C24.0572 36.0822 24.1654 35.9862 24.271 35.8876C24.4102 35.7604 24.5442 35.6306 24.673 35.4983C24.8689 35.301 25.0518 35.0986 25.2245 34.891C25.3997 34.6833 25.562 34.4731 25.7115 34.2603C25.8377 34.0812 25.9589 33.8995 26.0697 33.7153C26.183 33.5336 26.2861 33.3467 26.384 33.1573C26.5412 32.8562 26.6804 32.5474 26.8015 32.2307C26.8633 32.0724 26.92 31.9141 26.9715 31.7532C27.4405 30.3128 27.5694 28.7478 27.4045 27.0842C27.0746 23.7284 25.4899 21.2992 22.2122 20.165ZM19.1354 13.8453L19.1303 14.014C19.1277 14.0504 19.1251 14.0867 19.1226 14.1204L19.1071 14.2606C19.0994 14.3229 19.0891 14.3852 19.0788 14.4449C19.0684 14.4994 19.0581 14.5513 19.0427 14.6032C18.9087 15.2001 18.602 15.7347 18.1846 16.1552C17.5971 16.7469 16.7854 17.1129 15.8912 17.1129H11.8559C11.4256 17.1155 10.9953 17.1155 10.5624 17.1129C10.3356 17.1129 10.1114 17.1129 9.88467 17.1077C9.87179 17.1103 9.8589 17.1103 9.84344 17.1077C8.82818 17.1025 7.8026 17.0869 6.76672 17.0869V10.5804H15.8912C16.9245 10.5804 17.847 11.0683 18.4397 11.8261C18.8391 12.257 19.0684 12.8254 19.1226 13.5209C19.1303 13.6247 19.1354 13.7259 19.1354 13.8246V13.8453Z" fill="black"/>
<path d="M85.8079 3.96997V15.457C85.8079 15.457 85.7976 15.4492 85.7925 15.444V4.01409C85.7976 3.99852 85.8028 3.98554 85.8079 3.96997Z" fill="black"/>
<path d="M85.8518 25.9554C85.8492 26.2409 85.8311 26.5212 85.7925 26.7989V25.0262C85.8337 25.3325 85.8543 25.6413 85.8518 25.9554Z" fill="black"/>
<path d="M39.0568 13.3055V38.5504C39.0568 38.7139 38.9434 38.8489 38.7888 38.88C38.7682 38.8852 38.745 38.8878 38.7218 38.8878H38.7888C38.7682 38.893 38.745 38.8956 38.7218 38.8956H33.0296C33.2976 38.8904 33.5681 38.8878 33.8387 38.8878H32.6946C32.5091 38.8878 32.3596 38.7373 32.3596 38.5504V13.3055C32.3596 13.1187 32.5091 12.9681 32.6946 12.9681H38.7218C38.9073 12.9681 39.0568 13.1187 39.0568 13.3055Z" fill="black"/>
<path d="M62.6552 12.4958V19.6252C62.6552 19.8095 62.5084 19.9601 62.328 19.9626H62.3228C62.2945 19.9575 62.2661 19.9549 62.2404 19.9497C62.2378 19.9523 62.2352 19.9523 62.2352 19.9497C61.8977 19.9055 61.5601 19.8614 61.2277 19.8303C56.2673 19.3475 52.6211 22.2154 52.0027 26.8766V38.5583C52.0027 38.6517 51.9666 38.7348 51.9073 38.7945C51.8919 38.81 51.8738 38.8256 51.8558 38.8386C51.8017 38.8749 51.7398 38.8957 51.6703 38.8957H45.6405C45.5709 38.8957 45.5065 38.8749 45.455 38.8386C45.3648 38.7789 45.3081 38.6751 45.3081 38.5583V13.3134C45.3081 13.1758 45.388 13.059 45.5014 13.0071C45.5452 12.9864 45.5916 12.976 45.6405 12.976H51.6703C51.7192 12.976 51.7682 12.9864 51.8094 13.0071C51.8378 13.0201 51.8635 13.0383 51.8867 13.059C51.9589 13.1213 52.0027 13.2122 52.0027 13.3134V17.7903C54.4017 13.957 58.0762 12.649 62.2507 12.1662C62.2739 12.161 62.2971 12.1584 62.3203 12.1584C62.3898 12.1584 62.4542 12.1792 62.5084 12.2181C62.5264 12.2311 62.5419 12.2441 62.5573 12.2597C62.6192 12.322 62.6552 12.405 62.6552 12.4958Z" fill="black"/>
<path d="M39.0311 1.80036C39.8711 2.64645 40.3891 3.81175 40.3891 5.10164C40.3891 6.39153 39.8711 7.55684 39.0311 8.40292C38.191 9.2464 37.0315 9.77066 35.7534 9.77066C33.1946 9.77066 31.1177 7.67882 31.1177 5.10164C31.1177 3.81175 31.6356 2.64645 32.4757 1.80036C33.3157 0.956877 34.4753 0.432617 35.7534 0.432617C37.0315 0.432617 38.191 0.956877 39.0311 1.80036Z" fill="black"/>
<path d="M85.8079 3.96997V12.2543H85.7925V4.01409C85.7976 3.99852 85.8028 3.98554 85.8079 3.96997Z" fill="black"/>
<path d="M127.295 4.1075V38.5581C127.295 38.6879 127.225 38.7969 127.12 38.854C127.073 38.8799 127.019 38.8955 126.962 38.8955H121.587C121.51 38.8955 121.43 38.8981 121.353 38.8981C121.304 38.8981 121.257 38.8981 121.211 38.8955H120.933C120.747 38.8955 120.6 38.745 120.6 38.5581V24.9222C120.513 24.66 120.332 24.4758 120.028 24.3019C117.918 23.0873 115.825 21.8415 113.738 20.5827C113.377 20.3647 113.117 20.3414 112.738 20.5698C110.618 21.8571 108.479 23.1184 106.332 24.3616C106.059 24.5199 105.91 24.6912 105.845 24.9325V38.5581C105.845 38.745 105.696 38.8955 105.513 38.8955H99.4832C99.46 38.8955 99.4368 38.8929 99.4162 38.8877C99.2616 38.8566 99.1482 38.7216 99.1482 38.5581V4.01407C99.1868 3.87392 99.3157 3.77271 99.4677 3.77271H105.513C105.696 3.77271 105.845 3.92323 105.845 4.1075V17.8992C106.425 17.5618 106.915 17.2841 107.402 16.996C109.113 15.9838 110.834 14.9846 112.53 13.9387C113.027 13.6324 113.403 13.6142 113.913 13.9283C115.928 15.1663 117.972 16.3575 120.008 17.5618C120.172 17.6604 120.345 17.7382 120.6 17.868V12.2543V4.01407C120.6 4.01407 120.6 4.00888 120.6 4.00629C120.641 3.87133 120.768 3.77271 120.917 3.77271H126.962C127.145 3.77271 127.295 3.92323 127.295 4.1075Z" fill="black"/>
<path d="M92.1573 3.77271H86.112C85.9755 3.77271 85.8595 3.85316 85.808 3.96995V15.4569C85.808 15.4569 85.7977 15.4492 85.7925 15.444C84.9654 14.8055 84.2542 14.11 83.4167 13.635C79.3015 11.2914 75.1812 11.647 71.3469 14.1645C66.7112 17.2062 64.7528 21.7429 65.2218 27.2346C65.6573 32.3371 68.1671 36.1963 72.777 38.4932C76.7582 40.4761 82.0767 40.1906 85.4807 36.5597C85.5477 36.487 85.6482 36.4455 85.7925 36.365V38.5581C85.7925 38.6437 85.8234 38.7216 85.8775 38.7813C85.8956 38.8021 85.9136 38.8202 85.9368 38.8358C85.9909 38.8747 86.0579 38.8955 86.1275 38.8955H92.1573C92.1804 38.8955 92.2036 38.8929 92.2242 38.8877C92.3763 38.8566 92.4897 38.7216 92.4897 38.5581V4.1075C92.4897 3.92323 92.3402 3.77271 92.1573 3.77271ZM85.7925 26.7986C85.3493 30.2686 82.2984 33.0482 78.7965 32.9937C74.9312 32.9314 71.803 29.7417 71.8184 25.8798C71.8339 21.9842 75.0214 18.8465 78.9433 18.8646C82.4143 18.8802 85.3519 21.6053 85.7925 25.026C85.8337 25.3322 85.8544 25.6411 85.8518 25.9551C85.8492 26.2406 85.8312 26.5209 85.7925 26.7986Z" fill="black"/>
<path d="M189.025 13.3055V38.5504C189.025 38.6672 188.968 38.7684 188.881 38.8281C188.827 38.8671 188.76 38.8878 188.69 38.8878H182.663C182.593 38.8878 182.526 38.8671 182.472 38.8281H182.433V38.797C182.369 38.7347 182.328 38.6465 182.328 38.5504V36.565C182.281 36.539 182.235 36.5131 182.191 36.4871C182.016 36.7285 181.869 37.0036 181.66 37.2086C179.493 39.3187 176.803 39.8092 173.935 39.6483C169.248 39.3887 166.153 36.5365 165.334 31.6961C165.133 30.4971 165.019 29.2669 165.009 28.0523C164.975 23.552 164.991 19.049 164.996 14.5487V13.3471C164.996 13.3081 165.001 13.2718 165.014 13.2381C165.03 13.1861 165.058 13.142 165.094 13.1057C165.115 13.0875 165.135 13.0694 165.161 13.0564C165.21 13.0252 165.269 13.0071 165.331 13.0071H171.343C171.405 13.0071 171.464 13.0252 171.51 13.0564C171.608 13.1109 171.675 13.2199 171.675 13.3471V14.5487C171.675 18.7246 171.67 22.9031 171.683 27.0764C171.683 27.7564 171.75 28.4416 171.858 29.1112C172.309 31.8752 174.046 33.1262 176.981 32.9341C180.117 32.7291 182.23 30.5698 182.315 27.3827C182.32 27.1958 182.325 27.0115 182.328 26.8247V13.3055C182.328 13.2121 182.364 13.1265 182.426 13.0668C182.446 13.046 182.467 13.0278 182.493 13.0149C182.542 12.9863 182.601 12.9681 182.663 12.9681H188.69C188.752 12.9681 188.811 12.9863 188.86 13.0149C188.958 13.072 189.025 13.181 189.025 13.3055Z" fill="black"/>
</svg>
