<svg width="27" height="41" viewBox="0 0 27 41" fill="none" xmlns="http://www.w3.org/2000/svg">
<path d="M13.7205 33.2812C13.3815 33.2812 13.0564 33.1466 12.8167 32.9069C12.577 32.6672 12.4424 32.3421 12.4424 32.0031L12.4424 26.8906C12.4424 26.5516 12.577 26.2265 12.8167 25.9868C13.0564 25.7471 13.3815 25.6125 13.7205 25.6125C14.0595 25.6125 14.3846 25.7471 14.6243 25.9868C14.864 26.2265 14.9986 26.5516 14.9986 26.8906L14.9986 32.0031C14.9986 32.3421 14.864 32.6672 14.6243 32.9069C14.3846 33.1466 14.0595 33.2812 13.7205 33.2812ZM3.49552 12.8313C3.49552 10.1194 4.57279 7.51867 6.49034 5.60112C8.4079 3.68356 11.0087 2.60629 13.7205 2.60629C16.4323 2.60629 19.0331 3.68356 20.9506 5.60112C22.8682 7.51867 23.9455 10.1194 23.9455 12.8313L23.9455 28.1687C23.9455 30.8806 22.8682 33.4813 20.9506 35.3989C19.0331 37.3164 16.4323 38.3937 13.7205 38.3937C11.0087 38.3937 8.4079 37.3164 6.49034 35.3989C4.57279 33.4813 3.49552 30.8806 3.49552 28.1687L3.49552 12.8313ZM13.7205 40.95C17.1103 40.95 20.3612 39.6034 22.7582 37.2064C25.1551 34.8095 26.5017 31.5585 26.5017 28.1687L26.5017 12.8313C26.5017 9.44148 25.1551 6.19052 22.7582 3.79358C20.3612 1.39664 17.1103 0.050048 13.7205 0.0500477C10.3307 0.0500474 7.07975 1.39664 4.68281 3.79358C2.28586 6.19052 0.939275 9.44148 0.939275 12.8313L0.939274 28.1687C0.939273 31.5585 2.28586 34.8095 4.6828 37.2064C7.07975 39.6034 10.3307 40.9499 13.7205 40.95Z" fill="white"/>
</svg>
