<svg width="290" height="51" viewBox="0 0 290 51" fill="none" xmlns="http://www.w3.org/2000/svg">
<path fill-rule="evenodd" clip-rule="evenodd" d="M0.327637 50.4417V1.37025H19.6559L34.0073 24.286V1.37025H48.9381V50.4434H34.0073L15.489 20.5833V50.4434H0.327637V50.4417ZM262.012 0.443359V27.4108H265.828L272.542 14.4489H288.398L277.521 31.6929L289.672 50.4434H273.121L265.25 36.2089H262.012V50.4434H248.237V0.443359H262.012ZM208.772 50.4417V14.4489H222.081V18.2669C223.238 15.6047 225.323 14.4489 227.985 14.4489H237.127C242.799 14.4489 244.536 17.1095 244.536 22.7812V33.7756H232.269V26.8312H222.081V50.4417H208.772ZM176.597 38.4068H188.401V26.1381H176.597V38.4068ZM188.634 45.6985C187.244 49.286 184.004 50.4434 180.415 50.4434H173.125C169.653 50.4434 166.989 49.4012 165.137 47.4355C163.4 49.0538 161.2 50.4434 158.541 50.4434H151.943C145.115 50.4434 143.031 46.5085 143.031 40.2573V26.8329H135.507V50.4434H121.156V26.8329H112.591V50.4434H98.5874V14.4489H112.591V18.2669C113.981 16.069 116.411 14.4489 119.537 14.4489H125.672C128.797 14.4489 132.037 15.7216 133.079 18.1516C134.699 15.7216 137.013 14.4489 139.56 14.4489H146.04C153.449 14.4489 156.228 16.4164 156.228 23.5928V37.5968H162.479V23.825C162.479 17.4585 165.138 14.3337 171.622 14.4506H181.227C184.236 14.5658 187.13 15.0285 188.75 17.8059V14.4489H202.639V37.5968H205.071V50.4434H196.045C192.223 50.4417 190.254 49.1691 188.634 45.6985ZM93.4969 14.4489V35.0499C93.4969 37.0156 93.4969 37.5968 95.5812 37.5968V50.4434H89.0994C85.2815 50.4434 82.272 50.4433 80.0724 46.3933C77.2934 49.0538 74.1702 50.4434 70.2338 50.4434H61.8999C54.9556 50.4434 52.295 45.3512 52.295 39.2168V14.4489H67.109V37.5968H78.6829V14.4489H93.4969Z" fill="black"/>
</svg>
