<svg width="252" height="59" viewBox="0 0 252 59" fill="none" xmlns="http://www.w3.org/2000/svg">
<path d="M39.7319 0.443359H47.7419V9.09186H39.7319V0.443359ZM179.97 0.443359H187.98V9.09186H179.97V0.443359Z" fill="#525254"/>
<path d="M22.0289 12.1953C16.9803 12.1953 14.0606 14.5171 12.6522 16.1212C12.4849 14.739 11.5952 12.9458 8.12435 12.9458H0.586914V21.0329H3.67599C4.1986 21.0329 4.36692 21.204 4.36692 21.7386V58.6645H13.352V44.8055C13.352 44.4313 13.3446 44.0817 13.3353 43.7688C14.7387 45.0902 17.419 46.909 21.6059 46.909C30.3878 46.909 36.5276 39.7735 36.5276 29.5537C36.5276 19.1719 30.6979 12.1953 22.0289 12.1953ZM20.2034 38.8872C15.3664 38.8872 13.1689 34.14 13.1689 29.7418C13.1689 22.814 16.865 20.3448 20.3236 20.3448C24.5649 20.3448 27.4174 24.0932 27.4174 29.6769C27.4174 36.0443 23.7905 38.8872 20.2034 38.8872Z" fill="black"/>
<path d="M48.3559 37.4291V17.8631C48.3559 14.5549 46.8003 12.9458 43.6151 12.9458H35.5874V21.033H38.6799C39.2006 21.033 39.3679 21.204 39.3679 21.7382V41.2393C39.3679 44.5942 40.8754 46.1555 44.1009 46.1555H52.1388V38.1398H49.0454C48.5478 38.1398 48.3559 37.9361 48.3559 37.4291Z" fill="black"/>
<path d="M71.825 12.1953C66.775 12.1953 63.8592 14.5172 62.4444 16.1212C62.2776 14.739 61.3923 12.9458 57.922 12.9458H50.3796V21.033H53.4721C53.9928 21.033 54.1616 21.204 54.1616 21.7387V58.6645H63.1506V44.8055C63.1506 44.4313 63.1408 44.0817 63.1295 43.7688C64.527 45.0902 67.2162 46.909 71.4015 46.909C80.1844 46.909 86.3213 39.7735 86.3213 29.5537C86.3213 19.1719 80.495 12.1953 71.8255 12.1953M69.9922 38.8873C65.1684 38.8873 62.9631 34.14 62.9631 29.7418C62.9631 22.8141 66.6582 20.3449 70.1198 20.3449C74.3606 20.3449 77.2121 24.0932 77.2121 29.6769C77.2121 36.0443 73.5901 38.8873 69.9922 38.8873ZM102.883 12.1953C93.2041 12.1953 86.4362 19.3343 86.4362 29.5537C86.4362 39.6076 93.739 46.909 103.802 46.909C111.718 46.909 116.554 42.1059 116.759 41.9027L117.12 41.5375L113.207 34.8794L112.625 35.4438C112.588 35.4724 109.037 38.8274 104.346 38.8274C99.8436 38.8274 96.5479 36.0106 95.7711 31.5918H117.075L117.126 30.9882C117.14 30.9057 117.318 28.9461 117.318 27.9884C117.318 18.5431 111.517 12.1953 102.883 12.1953ZM96.1048 24.7596C97.0798 21.5007 99.5167 19.6542 102.883 19.6542C105.587 19.6542 107.672 21.7628 108.037 24.7596H96.1048ZM149.994 37.4291V5.35963C149.994 2.05395 148.417 0.443359 145.19 0.443359H137.16V8.53001H140.252C140.772 8.53001 140.944 8.70254 140.944 9.23772V15.0347C139.618 13.8074 137.028 12.1948 132.57 12.1948C123.851 12.1948 117.768 19.3343 117.768 29.5532C117.768 39.9355 123.597 46.909 132.267 46.909C137.225 46.909 140.081 44.55 141.476 42.9077C141.658 44.3412 142.563 46.1555 145.925 46.1555H153.709V38.1403H150.682C150.184 38.1403 149.994 37.9361 149.994 37.4291ZM133.972 38.8878C129.699 38.8878 126.935 35.2224 126.935 29.5537C126.935 24.0434 129.811 20.3449 134.094 20.3449C138.95 20.3449 141.126 24.9347 141.126 29.4933C141.126 36.4226 137.427 38.8878 133.972 38.8878ZM173.748 12.5062C170.009 12.5062 166.566 14.7189 164.526 18.2433V17.4843C164.526 14.4749 162.904 12.9453 159.724 12.9453H152V21.033H155.089C155.609 21.033 155.782 21.203 155.782 21.7387V46.1566H164.765V32.8649C164.765 31.1145 164.983 29.429 165.407 27.8722C166.759 23.2884 170.353 21.6567 173.26 21.6567C174.29 21.6567 175.041 21.7688 175.053 21.7724L175.803 21.888V12.734L175.257 12.639C175.229 12.6339 174.469 12.5062 173.748 12.5062ZM188.591 37.4291V17.8631C188.591 14.5549 187.044 12.9458 183.856 12.9458H176.593V21.033H178.915C179.439 21.033 179.605 21.204 179.605 21.7382V41.2393C179.605 44.5942 181.113 46.1555 184.344 46.1555H192.375V38.1398H189.281C188.783 38.1398 188.591 37.9361 188.591 37.4291Z" fill="black"/>
<path d="M222.35 21.0332V12.9461H217.556C214.756 12.9461 213.254 13.941 212.367 16.3865L206.51 33.1539C206.3 33.8088 206.115 34.4717 205.955 35.1412C205.785 34.4692 205.583 33.764 205.361 33.1413L199.504 16.3805C198.605 13.9098 197.155 12.9456 194.316 12.9456H189.22V21.0332H190.542C191.243 21.0332 191.468 21.2767 191.636 21.7263L200.701 46.1558H210.803L219.87 21.7263C220.036 21.2767 220.268 21.0332 220.97 21.0332H222.35Z" fill="black"/>
<path d="M251.223 30.989C251.231 30.906 251.413 28.9458 251.413 27.9886C251.413 18.5434 245.609 12.1951 236.973 12.1951C227.294 12.1951 220.531 19.3346 220.531 29.5534C220.531 39.6083 227.825 46.9093 237.891 46.9093C245.808 46.9093 250.648 42.1062 250.849 41.903L251.214 41.5378L247.309 34.8796L246.715 35.444C246.684 35.4727 243.115 38.8277 238.441 38.8277C233.936 38.8277 230.638 36.0109 229.859 31.5921H251.17L251.223 30.989ZM230.195 24.7604C231.178 21.501 233.607 19.654 236.973 19.654C239.684 19.654 241.761 21.763 242.129 24.7604H230.195Z" fill="black"/>
<path d="M173.748 12.5062C170.844 12.5062 168.139 13.8527 166.109 16.0935C167.824 16.078 169.55 16.0634 171.276 16.0634C172.792 16.0634 174.296 16.078 175.804 16.087V12.734L175.257 12.639C175.229 12.6339 174.469 12.5062 173.748 12.5062ZM212.367 16.3863L211.997 17.4521C215.472 17.6971 218.918 17.9672 222.35 18.2695V12.9458H217.557C214.757 12.9458 213.254 13.9407 212.367 16.3863ZM22.0289 12.1953C16.9803 12.1953 14.0596 14.5172 12.6522 16.1207C12.4839 14.739 11.5952 12.9458 8.12435 12.9458H0.586914V21.033H3.67599C4.1986 21.033 4.36692 21.204 4.36692 21.7382V42.3157C8.56582 40.8207 12.7901 39.4017 17.0378 38.0593C14.3977 36.5106 13.1689 33.0304 13.1689 29.7408C13.1689 22.8146 16.865 20.3449 20.3236 20.3449C24.5649 20.3449 27.4174 24.0932 27.4174 29.6769C27.4174 32.0219 26.9208 33.882 26.119 35.3034C29.5121 34.3177 32.917 33.3749 36.3328 32.4751C36.4447 31.532 36.5276 30.5607 36.5276 29.5537C36.5276 19.1719 30.6979 12.1953 22.0289 12.1953ZM43.6151 12.9458H35.5874V21.033H38.6799C39.2001 21.033 39.3669 21.204 39.3669 21.7387V31.6995C42.3558 30.9356 45.3523 30.2034 48.3559 29.5029V17.8631C48.3559 14.5559 46.8003 12.9458 43.6151 12.9458ZM39.732 0.443359H47.742V9.09185H39.732V0.443359ZM71.826 12.1953C66.7755 12.1953 63.8602 14.5172 62.4454 16.1207C62.2771 14.739 61.3933 12.9458 57.922 12.9458H50.3806V21.033H53.4721C53.9928 21.033 54.1626 21.204 54.1626 21.7382V28.1891C57.229 27.5229 60.301 26.8841 63.3783 26.2727C64.4078 21.9982 67.3251 20.3449 70.1198 20.3449C72.6494 20.3449 74.6653 21.6969 75.8945 23.9564C78.9959 23.4267 82.1168 22.9162 85.2658 22.4328C83.2195 16.1096 78.3182 12.1953 71.826 12.1953ZM102.883 12.1953C95.8113 12.1953 90.3099 16.0116 87.8524 22.0505C91.6711 21.4867 95.5297 20.96 99.422 20.4711C100.418 19.9394 101.577 19.6547 102.883 19.6547C103.378 19.6547 103.838 19.7493 104.284 19.8801C107.815 19.4707 111.378 19.0934 114.97 18.7478C112.501 14.6404 108.238 12.1953 102.883 12.1953ZM145.19 0.443359H137.16V8.53001H140.252C140.771 8.53001 140.944 8.70254 140.944 9.23772V15.0347C139.618 13.8074 137.028 12.1948 132.57 12.1948C127.69 12.1948 123.638 14.4316 121.013 18.1981C130.658 17.3696 140.321 16.7828 149.994 16.4381V5.35963C149.994 2.05395 148.417 0.443359 145.19 0.443359ZM159.725 12.9458H152V16.3808C156.099 16.247 160.216 16.1514 164.369 16.1031C163.914 14.0152 162.367 12.9458 159.725 12.9458ZM179.971 0.443359H187.981V9.09185H179.971V0.443359ZM183.857 12.9458H176.594V16.0925C180.561 16.1293 184.509 16.2032 188.436 16.3134C187.99 14.064 186.492 12.9458 183.857 12.9458ZM194.316 12.9458H189.22V16.338C192.708 16.4436 196.175 16.5744 199.622 16.7354L199.505 16.3808C198.606 13.91 197.155 12.9458 194.316 12.9458ZM236.973 12.1953C231.454 12.1953 226.892 14.5217 223.979 18.4108C228.198 18.7906 232.392 19.2166 236.539 19.6854C237.177 19.7574 237.805 19.8238 238.433 19.8992C242.435 20.363 246.394 20.873 250.318 21.4218C248.262 15.7213 243.404 12.1953 236.973 12.1953Z" fill="#3B3B3C"/>
</svg>
