<svg width="46" height="38" viewBox="0 0 46 38" fill="none" xmlns="http://www.w3.org/2000/svg">
<path d="M8.56226 36.1497L13.6994 31.0126M13.6994 31.0126C14.5779 31.8911 15.6209 32.588 16.7688 33.0635C17.9167 33.539 19.147 33.7837 20.3895 33.7837C21.632 33.7837 22.8623 33.539 24.0102 33.0635C25.1581 32.588 26.2011 31.8911 27.0797 31.0126C27.9582 30.134 28.6552 29.091 29.1306 27.9431C29.6061 26.7952 29.8508 25.5649 29.8508 24.3224C29.8508 23.0799 29.6061 21.8496 29.1306 20.7017C28.6552 19.5538 27.9582 18.5108 27.0797 17.6322C25.3053 15.8579 22.8988 14.8611 20.3895 14.8611C17.8802 14.8611 15.4737 15.8579 13.6994 17.6322C11.925 19.4066 10.9282 21.8131 10.9282 24.3224C10.9282 26.8317 11.925 29.2382 13.6994 31.0126Z" stroke="white" stroke-width="2.5" stroke-linecap="round" stroke-linejoin="round"/>
<path d="M4.30448 25.9049C2.90596 23.4955 2.17136 20.7584 2.17555 17.9725C2.17555 9.19918 9.3245 2.08643 18.1425 2.08643H28.7872C37.6052 2.08643 44.7541 9.19918 44.7541 17.9725C44.7541 24.8915 40.3111 30.7759 34.1095 32.9559" stroke="white" stroke-width="2.5" stroke-linecap="round" stroke-linejoin="round"/>
</svg>
